<svg id="_x33_0" enable-background="new 0 0 64 64" height="512" viewBox="0 0 64 64" width="512" xmlns="http://www.w3.org/2000/svg" class="start" style="">
<style>
svg path , svg rect , svg circle {
    fill: none;
    stroke: #34ac72;
    stroke-width: 1px;
}
</style>

<g><path d="m20.819 10.573-1.638-1.146-6.317 9.023-2.157-2.157-1.414 1.414 3.843 3.843z" class="QiRtAWlY_0"></path><path d="M35,30A1,1 0,1,1 37,30A1,1 0,1,1 35,30" class="QiRtAWlY_1"></path><path d="m49 29h2v2h-2z" class="QiRtAWlY_2"></path><path d="m53 29h2v2h-2z" class="QiRtAWlY_3"></path><path d="m50 33c-6.831 0-12.435 5.299-12.949 12h-6.051v-7c0-1.654-1.346-3-3-3-.395 0-.77.081-1.116.22-.345-1.275-1.501-2.22-2.884-2.22-.771 0-1.468.301-2 .78-.532-.48-1.229-.78-2-.78-.352 0-.686.072-1 .184v-2.184h12.101c.465 2.279 2.484 4 4.899 4s4.434-1.721 4.899-4h6.101v-2h-6.101c-.465-2.279-2.484-4-4.899-4s-4.434 1.721-4.899 4h-12.101v-.847c.343-1.213 1.449-2.312 2.732-3.578 2.197-2.169 4.896-4.835 5.232-9.576h10.086c.514 6.702 6.119 12.001 12.95 12.001 7.168 0 13-5.832 13-13s-5.832-13-13-13c-6.831 0-12.436 5.299-12.949 12h-10.102c-.513-6.701-6.118-12-12.949-12-7.168 0-13 5.832-13 13 0 5.375 2.921 8.259 5.268 10.576 1.314 1.297 2.45 2.418 2.762 3.667l.189.757h3.781v2h-4v2h4v7.917c-.001.085-.152.098-.165.015l-.293-1.76c-.402-2.418-2.473-4.172-4.924-4.172-1.444 0-2.618 1.175-2.618 2.677 0 .343.064.678.191.994l.593 1.482c.825 2.063 1.402 4.222 1.716 6.419.337 2.365 1.608 4.49 3.5 5.927v7.501c0 1.654 1.346 3 3 3h12c1.654 0 3-1.346 3-3v-7.718c1.017-1.61 1.659-3.406 1.893-5.282h6.158c.514 6.701 6.118 12 12.949 12 7.168 0 13-5.832 13-13s-5.832-13-13-13zm-14-6c1.654 0 3 1.346 3 3s-1.346 3-3 3-3-1.346-3-3 1.346-3 3-3zm9.789-15.224c-.487-.243-.789-.732-.789-1.276s.302-1.033.789-1.276l.956-.479.149-.298c.447-.892 1.344-1.447 2.342-1.447h2.521c1.788 0 3.243 1.455 3.243 3.243 0 .866-.337 1.68-.95 2.293l-.44.44c-1.392-.118-2.659-.852-3.442-2.027l-.891-1.336-3.349 2.233zm5.211 7.325c2.213.451 3.883 2.373 3.979 4.695-1.215.62-2.557 1.025-3.979 1.154zm-3-2.101c-.551 0-1-.449-1-1v-2.465l1.732-1.155c1.043 1.38 2.574 2.286 4.268 2.544v1.076c0 .551-.449 1-1 1zm1 2.101v5.848c-1.422-.129-2.764-.533-3.979-1.154.096-2.321 1.766-4.243 3.979-4.694zm1-16.101c6.065 0 11 4.935 11 11 0 3.473-1.622 6.57-4.143 8.587-.369-1.794-1.428-3.336-2.884-4.344.624-.55 1.027-1.347 1.027-2.243v-1.586l.464-.464c.99-.99 1.536-2.307 1.536-3.707 0-2.891-2.352-5.243-5.243-5.243h-2.521c-1.643 0-3.13.852-3.962 2.245l-.379.189c-1.169.585-1.895 1.759-1.895 3.066s.726 2.481 1.895 3.065l.105.053v2.382c0 .896.403 1.693 1.028 2.243-1.456 1.008-2.515 2.551-2.884 4.344-2.522-2.017-4.144-5.114-4.144-8.587 0-6.065 4.935-11 11-11zm-42.327 20.152c-2.19-2.162-4.673-4.612-4.673-9.152 0-6.065 4.935-11 11-11s11 4.935 11 11c0 4.54-2.483 6.99-4.673 9.152-.873.862-1.713 1.698-2.348 2.61-.53-.468-1.218-.762-1.979-.762-1.302 0-2.402.839-2.816 2h-2.466c-.601-1.435-1.793-2.612-3.045-3.848zm19.327 36.848c0 .552-.449 1-1 1h-12c-.551 0-1-.448-1-1v-7h14zm2-14.605c0 1.986-.541 3.911-1.558 5.605h-15.112c-1.542-1.12-2.579-2.817-2.85-4.711-.336-2.354-.955-4.669-1.838-6.878l-.593-1.484c-.033-.079-.049-.163-.049-.309 0-.341.277-.618.618-.618 1.469 0 2.71 1.052 2.952 2.5l.293 1.76c.168 1.009 1.032 1.74 2.055 1.74 1.148 0 2.082-.935 2.082-2.083v-12.917c0-.551.449-1 1-1s1 .449 1 1v13h2v-5c0-.552.449-1 1-1s1 .448 1 1v5h2v-5c0-.552.449-1 1-1s1 .448 1 1v5h2v-3c0-.552.449-1 1-1s1 .448 1 1zm24.221 4.397c1.079-.918 1.779-2.268 1.779-3.792v-.566l-6.028-3.616-3.972 2.647v1.535c0 1.524.7 2.874 1.779 3.792-.863.45-1.621 1.072-2.227 1.824-1.002-1.693-1.552-3.646-1.552-5.616 0-3.859 3.14-7 7-7s7 3.141 7 7c0 1.971-.55 3.923-1.552 5.615-.606-.751-1.364-1.374-2.227-1.823zm-6.221-3.792v-.465l2.028-1.353 3.923 2.354c-.253 1.4-1.48 2.464-2.951 2.464-1.654 0-3-1.346-3-3zm3 5c.478 0 .932.089 1.371.215l-1.371 1.371-1.371-1.371c.439-.126.893-.215 1.371-.215zm-4.979 4.796c.06-1.444.733-2.719 1.767-3.595l3.212 3.213 3.213-3.213c1.034.876 1.707 2.151 1.767 3.595-1.498.764-3.187 1.204-4.98 1.204s-3.482-.44-4.979-1.204zm11.836-1.209c-.072-.35-.178-.687-.3-1.015 1.573-2.195 2.443-4.87 2.443-7.572 0-4.963-4.038-9-9-9s-9 4.037-9 9c0 2.701.87 5.376 2.443 7.572-.122.329-.228.665-.3 1.015-2.521-2.017-4.143-5.114-4.143-8.587 0-6.065 4.935-11 11-11s11 4.935 11 11c0 3.473-1.622 6.57-4.143 8.587z" class="QiRtAWlY_4"></path></g><style data-made-with="vivus-instant">.QiRtAWlY_0{stroke-dasharray:37 39;stroke-dashoffset:38;}.start .QiRtAWlY_0{animation:QiRtAWlY_draw_0 5000ms linear 0ms infinite,QiRtAWlY_fade 5000ms linear 0ms infinite;}.QiRtAWlY_1{stroke-dasharray:7 9;stroke-dashoffset:8;}.start .QiRtAWlY_1{animation:QiRtAWlY_draw_1 5000ms linear 0ms infinite,QiRtAWlY_fade 5000ms linear 0ms infinite;}.QiRtAWlY_2{stroke-dasharray:8 10;stroke-dashoffset:9;}.start .QiRtAWlY_2{animation:QiRtAWlY_draw_2 5000ms linear 0ms infinite,QiRtAWlY_fade 5000ms linear 0ms infinite;}.QiRtAWlY_3{stroke-dasharray:8 10;stroke-dashoffset:9;}.start .QiRtAWlY_3{animation:QiRtAWlY_draw_3 5000ms linear 0ms infinite,QiRtAWlY_fade 5000ms linear 0ms infinite;}.QiRtAWlY_4{stroke-dasharray:1106 1108;stroke-dashoffset:1107;}.start .QiRtAWlY_4{animation:QiRtAWlY_draw_4 5000ms linear 0ms infinite,QiRtAWlY_fade 5000ms linear 0ms infinite;}@keyframes QiRtAWlY_draw{100%{stroke-dashoffset:0;}}@keyframes QiRtAWlY_fade{0%{stroke-opacity:1;}80%{stroke-opacity:1;}100%{stroke-opacity:0;}}@keyframes QiRtAWlY_draw_0{10%{stroke-dashoffset: 38}11.947053800170796%{ stroke-dashoffset: 0;}100%{ stroke-dashoffset: 0;}}@keyframes QiRtAWlY_draw_1{11.947053800170796%{stroke-dashoffset: 8}12.356959863364645%{ stroke-dashoffset: 0;}100%{ stroke-dashoffset: 0;}}@keyframes QiRtAWlY_draw_2{12.356959863364645%{stroke-dashoffset: 9}12.818104184457729%{ stroke-dashoffset: 0;}100%{ stroke-dashoffset: 0;}}@keyframes QiRtAWlY_draw_3{12.818104184457729%{stroke-dashoffset: 9}13.279248505550814%{ stroke-dashoffset: 0;}100%{ stroke-dashoffset: 0;}}@keyframes QiRtAWlY_draw_4{13.279248505550811%{stroke-dashoffset: 1107}70%{ stroke-dashoffset: 0;}100%{ stroke-dashoffset: 0;}}</style></svg>