<svg id="Capa_1" enable-background="new 0 0 512 512" height="512" viewBox="0 0 512 512" width="512" xmlns="http://www.w3.org/2000/svg" class="start" style="">

<style>
svg path , svg rect , svg circle {
    fill: none;
    stroke: #34ac72;
    stroke-width: 7px;
}
</style>
<g><path d="m280.066 57.2c0-13.271-10.796-24.067-24.066-24.067s-24.066 10.797-24.066 24.067 10.796 24.067 24.066 24.067c13.271 0 24.066-10.796 24.066-24.067zm-33.132 0c0-5 4.067-9.067 9.066-9.067s9.066 4.067 9.066 9.067c0 4.999-4.067 9.066-9.066 9.066s-9.066-4.067-9.066-9.066z" class="SigtpPuF_0"></path><path d="m454.8 198.8c-6.536 0-12.951 1.096-19.066 3.257-3.905 1.38-5.952 5.665-4.572 9.57s5.664 5.951 9.57 4.572c4.506-1.592 9.239-2.399 14.068-2.399 23.27 0 42.2 18.931 42.2 42.2s-18.931 42.2-42.2 42.2-42.2-18.931-42.2-42.2c0-8.644 2.593-16.949 7.498-24.02 2.361-3.403 1.517-8.076-1.887-10.438-3.403-2.36-8.077-1.516-10.438 1.887-1.88 2.71-3.5 5.556-4.87 8.504h-25.798c-3.212-16.194-9.599-31.259-18.487-44.514l18.295-18.295c6.335 2.308 12.996 3.476 19.66 3.476 14.648 0 29.296-5.576 40.447-16.727 22.302-22.303 22.302-58.591 0-80.893-22.303-22.301-58.591-22.301-80.893 0-16.224 16.225-20.633 39.848-13.251 60.107l-18.295 18.295c-13.255-8.888-28.32-15.274-44.514-18.487v-25.822c19.545-9.106 33.133-28.927 33.133-51.873 0-31.54-25.66-57.2-57.2-57.2s-57.2 25.66-57.2 57.2c0 22.946 13.588 42.767 33.134 51.873v25.822c-16.194 3.213-31.259 9.599-44.514 18.487l-18.295-18.295c7.382-20.259 2.974-43.882-13.251-60.107-17.854-17.853-44.837-21.937-67.148-10.153-3.663 1.934-5.064 6.471-3.13 10.134 1.934 3.662 6.473 5.064 10.134 3.13 16.457-8.689 36.364-5.676 49.537 7.497 16.454 16.453 16.454 43.226 0 59.679-16.453 16.456-43.226 16.454-59.679 0-12.895-12.894-16.064-32.496-7.888-48.777 1.859-3.702.365-8.21-3.336-10.068-3.699-1.859-8.209-.365-10.068 3.336-11.084 22.071-6.79 48.642 10.685 66.117 11.151 11.15 25.799 16.727 40.447 16.727 6.664 0 13.325-1.167 19.66-3.476l18.295 18.295c-8.888 13.256-15.275 28.32-18.487 44.514h-25.822c-9.107-19.547-28.928-33.135-51.874-33.135-31.54 0-57.2 25.66-57.2 57.2s25.66 57.2 57.2 57.2c22.946 0 42.767-13.588 51.873-33.134h25.822c3.213 16.194 9.599 31.259 18.487 44.514l-18.296 18.295c-20.259-7.381-43.882-2.973-60.106 13.25-22.302 22.303-22.302 58.591 0 80.893 11.151 11.15 25.799 16.727 40.447 16.727 14.647 0 29.295-5.576 40.446-16.727 16.224-16.225 20.633-39.848 13.251-60.107l18.295-18.295c13.255 8.888 28.32 15.274 44.514 18.487v25.822c-19.546 9.105-33.134 28.927-33.134 51.873 0 31.54 25.66 57.2 57.2 57.2s57.2-25.66 57.2-57.2c0-22.946-13.588-42.767-33.134-51.873v-25.822c16.194-3.213 31.259-9.599 44.514-18.487l18.295 18.295c-7.382 20.259-2.974 43.882 13.251 60.107 11.151 11.15 25.799 16.727 40.446 16.727 14.648 0 29.296-5.576 40.447-16.727 22.302-22.303 22.302-58.591 0-80.893-16.225-16.223-39.848-20.632-60.107-13.251l-18.295-18.295c8.888-13.256 15.275-28.32 18.487-44.514h25.822c9.105 19.546 28.927 33.134 51.873 33.134 31.54 0 57.2-25.66 57.2-57.2s-25.658-57.199-57.198-57.199zm-161.26 158.966c6.168-8.013 11.534-17.991 15.873-29.489 7.288 1.982 14.137 4.364 20.388 7.132-10.4 9.673-22.694 17.336-36.261 22.357zm-75.079-203.533c-6.168 8.013-11.536 17.99-15.876 29.489-7.287-1.981-14.137-4.364-20.387-7.131 10.402-9.674 22.696-17.337 36.263-22.358zm102.895 94.267c-.555-18.27-3.121-35.355-7.306-50.501 9.602-2.649 18.526-5.961 26.495-9.865 13.487 16.768 22.097 37.613 23.659 60.367h-42.848zm-57.856-99.638c9.769 3.427 19.241 13.389 26.792 28.491 1.544 3.087 2.971 6.345 4.307 9.724-9.913 1.819-20.378 2.94-31.099 3.299zm-15 41.514c-10.721-.359-21.185-1.48-31.099-3.299 1.335-3.378 2.763-6.637 4.307-9.724 7.551-15.102 17.023-25.064 26.792-28.491zm0 15.017v43.107h-42.846c.548-16.766 2.926-32.766 6.941-47.072 11.436 2.224 23.54 3.573 35.905 3.965zm0 58.107v43.107c-12.364.392-24.469 1.741-35.905 3.965-4.015-14.306-6.394-30.307-6.941-47.072zm0 58.124v41.514c-9.769-3.427-19.241-13.389-26.792-28.491-1.544-3.087-2.971-6.345-4.306-9.724 9.913-1.819 20.378-2.941 31.098-3.299zm15 0c10.72.359 21.185 1.48 31.099 3.299-1.335 3.378-2.763 6.637-4.307 9.724-7.551 15.102-17.023 25.064-26.792 28.491zm0-15.017v-43.107h42.846c-.548 16.765-2.926 32.766-6.941 47.072-11.436-2.225-23.54-3.573-35.905-3.965zm0-58.107v-43.107c12.365-.392 24.469-1.741 35.905-3.965 4.015 14.306 6.394 30.307 6.941 47.072zm66.302-71.909c-6.251 2.767-13.099 5.15-20.387 7.131-4.34-11.499-9.707-21.475-15.876-29.488 13.567 5.02 25.861 12.683 36.263 22.357zm-158.346 11.542c7.968 3.905 16.893 7.216 26.495 9.865-4.186 15.146-6.751 32.232-7.306 50.501h-42.847c1.561-22.753 10.171-43.598 23.658-60.366zm19.187 75.367c.555 18.271 3.124 35.354 7.31 50.501-9.603 2.65-18.528 5.961-26.497 9.866-13.487-16.768-22.097-37.612-23.659-60.367zm-8.445 71.909c6.251-2.767 13.1-5.15 20.387-7.131 4.342 11.505 9.716 21.478 15.888 29.494-13.572-5.021-25.87-12.686-36.275-22.363zm158.347-11.543c-7.967-3.904-16.889-7.214-26.489-9.863 4.185-15.145 6.747-32.235 7.302-50.503h42.845c-1.562 22.754-10.172 43.598-23.658 60.366zm26.188-238.278c8.227-8.228 19.033-12.341 29.84-12.341 10.806 0 21.612 4.113 29.839 12.341 16.454 16.453 16.454 43.226 0 59.679-16.453 16.456-43.226 16.454-59.679 0-16.454-16.453-16.454-43.226 0-59.679zm-16.505 63.361c1.755 2.424 3.716 4.743 5.898 6.925s4.501 4.143 6.925 5.898l-13.611 13.611c-3.957-4.58-8.243-8.866-12.822-12.822zm-136.428-91.749c0-23.27 18.931-42.2 42.2-42.2s42.2 18.931 42.2 42.2-18.93 42.2-42.2 42.2-42.2-18.93-42.2-42.2zm33.134 56.474c2.954.473 5.981.726 9.066.726s6.112-.253 9.066-.726v19.193c-2.995-.218-6.017-.334-9.066-.334s-6.072.116-9.066.334zm-97.985 48.097c2.423-1.755 4.743-3.716 6.925-5.898s4.143-4.501 5.898-6.925l13.611 13.611c-4.579 3.957-8.866 8.243-12.822 12.822zm-91.749 136.429c-23.269 0-42.2-18.93-42.2-42.2s18.931-42.2 42.2-42.2 42.2 18.93 42.2 42.2-18.93 42.2-42.2 42.2zm56.474-33.134c.473-2.954.726-5.981.726-9.066s-.253-6.112-.726-9.066h19.193c-.218 2.995-.334 6.017-.334 9.066s.116 6.072.334 9.066zm31.593 161.346c-16.453 16.454-43.226 16.456-59.679 0-16.454-16.453-16.454-43.226 0-59.679 8.227-8.228 19.033-12.341 29.839-12.341 10.807 0 21.613 4.113 29.84 12.341 16.454 16.453 16.454 43.226 0 59.679zm16.505-63.361c-1.755-2.424-3.716-4.743-5.898-6.925s-4.501-4.143-6.925-5.898l13.611-13.611c3.956 4.58 8.243 8.866 12.822 12.822zm136.428 91.749c0 23.27-18.931 42.2-42.2 42.2s-42.2-18.931-42.2-42.2 18.931-42.2 42.2-42.2 42.2 18.93 42.2 42.2zm-33.134-56.474c-2.954-.473-5.981-.726-9.066-.726s-6.112.253-9.066.726v-19.193c2.995.218 6.017.334 9.066.334s6.072-.116 9.066-.334zm131.507-43.933c10.806 0 21.612 4.113 29.839 12.341 16.454 16.453 16.454 43.226 0 59.679-16.453 16.456-43.226 16.454-59.679 0-16.454-16.453-16.454-43.226 0-59.679 8.227-8.228 19.034-12.341 29.84-12.341zm-33.522-4.165c-2.423 1.755-4.743 3.716-6.925 5.898s-4.143 4.501-5.898 6.925l-13.611-13.611c4.579-3.957 8.866-8.243 12.822-12.822zm16.082-85.162c.218-2.995.334-6.017.334-9.066s-.116-6.072-.334-9.066h19.186c-.474 2.977-.72 6.006-.72 9.066 0 3.085.253 6.112.726 9.066z" class="SigtpPuF_1"></path><path d="m478.867 256c0-13.27-10.797-24.066-24.067-24.066s-24.067 10.796-24.067 24.066c0 13.271 10.796 24.066 24.066 24.066s24.068-10.795 24.068-24.066zm-33.134 0c0-4.999 4.067-9.066 9.066-9.066 5 0 9.067 4.067 9.067 9.066s-4.067 9.066-9.067 9.066c-4.998 0-9.066-4.067-9.066-9.066z" class="SigtpPuF_2"></path><path d="m57.2 231.934c-13.271 0-24.067 10.796-24.067 24.066 0 13.271 10.797 24.066 24.067 24.066s24.067-10.795 24.067-24.066c0-13.27-10.796-24.066-24.067-24.066zm0 33.132c-5 0-9.067-4.067-9.067-9.066s4.067-9.066 9.067-9.066c4.999 0 9.066 4.067 9.066 9.066s-4.067 9.066-9.066 9.066z" class="SigtpPuF_3"></path><path d="m231.934 454.8c0 13.271 10.796 24.067 24.066 24.067 13.271 0 24.066-10.797 24.066-24.067s-10.795-24.067-24.066-24.067c-13.27 0-24.066 10.796-24.066 24.067zm33.132 0c0 5-4.067 9.067-9.066 9.067s-9.066-4.067-9.066-9.067c0-4.999 4.067-9.066 9.066-9.066s9.066 4.067 9.066 9.066z" class="SigtpPuF_4"></path><path d="m396.572 420.64c6.429 0 12.473-2.504 17.018-7.049 4.545-4.546 7.049-10.59 7.049-17.018s-2.504-12.472-7.049-17.018c-9.385-9.383-24.651-9.382-34.036 0-9.383 9.384-9.383 24.652 0 34.036 4.547 4.545 10.591 7.049 17.018 7.049zm-6.41-30.478c1.768-1.768 4.089-2.651 6.411-2.651 2.321 0 4.643.884 6.41 2.651 3.535 3.534 3.535 9.287 0 12.821-3.535 3.537-9.286 3.535-12.821 0-3.535-3.534-3.535-9.287 0-12.821z" class="SigtpPuF_5"></path><path d="m132.445 132.445c9.383-9.384 9.383-24.652 0-34.036-4.546-4.545-10.59-7.049-17.018-7.049-6.429 0-12.473 2.504-17.018 7.049-4.545 4.546-7.049 10.59-7.049 17.018s2.504 12.472 7.049 17.018c4.692 4.691 10.855 7.037 17.018 7.037s12.326-2.345 17.018-7.037zm-23.428-23.428c1.768-1.768 4.089-2.651 6.41-2.651 2.322 0 4.643.884 6.411 2.651 3.535 3.534 3.535 9.287 0 12.821s-9.286 3.536-12.821 0c-3.536-3.534-3.536-9.287 0-12.821z" class="SigtpPuF_6"></path><path d="m396.573 139.482c6.162 0 12.325-2.346 17.018-7.037 4.545-4.546 7.049-10.59 7.049-17.018 0-6.429-2.504-12.473-7.049-17.018-4.546-4.545-10.59-7.049-17.018-7.049s-12.472 2.504-17.018 7.049c-9.383 9.384-9.383 24.652 0 34.036 4.692 4.692 10.855 7.037 17.018 7.037zm-6.411-30.465c1.768-1.768 4.089-2.651 6.411-2.651 2.321 0 4.643.884 6.41 2.651 3.535 3.534 3.535 9.287 0 12.821-3.535 3.536-9.286 3.534-12.821 0s-3.535-9.287 0-12.821z" class="SigtpPuF_7"></path><path d="m98.409 379.555c-4.545 4.546-7.049 10.59-7.049 17.018 0 6.429 2.504 12.473 7.049 17.018 4.546 4.545 10.59 7.049 17.018 7.049s12.472-2.504 17.018-7.049c9.383-9.384 9.383-24.652 0-34.036-9.383-9.382-24.65-9.384-34.036 0zm23.429 23.428c-3.535 3.534-9.286 3.536-12.821 0-3.535-3.534-3.535-9.287 0-12.821 1.768-1.768 4.089-2.651 6.41-2.651 2.322 0 4.643.884 6.411 2.651 3.535 3.534 3.535 9.287 0 12.821z" class="SigtpPuF_8"></path></g><style data-made-with="vivus-instant">.SigtpPuF_0{stroke-dasharray:209 211;stroke-dashoffset:210;}.start .SigtpPuF_0{animation:SigtpPuF_draw_0 5000ms linear 0ms infinite,SigtpPuF_fade 5000ms linear 0ms infinite;}.SigtpPuF_1{stroke-dasharray:8288 8290;stroke-dashoffset:8289;}.start .SigtpPuF_1{animation:SigtpPuF_draw_1 5000ms linear 0ms infinite,SigtpPuF_fade 5000ms linear 0ms infinite;}.SigtpPuF_2{stroke-dasharray:209 211;stroke-dashoffset:210;}.start .SigtpPuF_2{animation:SigtpPuF_draw_2 5000ms linear 0ms infinite,SigtpPuF_fade 5000ms linear 0ms infinite;}.SigtpPuF_3{stroke-dasharray:209 211;stroke-dashoffset:210;}.start .SigtpPuF_3{animation:SigtpPuF_draw_3 5000ms linear 0ms infinite,SigtpPuF_fade 5000ms linear 0ms infinite;}.SigtpPuF_4{stroke-dasharray:209 211;stroke-dashoffset:210;}.start .SigtpPuF_4{animation:SigtpPuF_draw_4 5000ms linear 0ms infinite,SigtpPuF_fade 5000ms linear 0ms infinite;}.SigtpPuF_5{stroke-dasharray:209 211;stroke-dashoffset:210;}.start .SigtpPuF_5{animation:SigtpPuF_draw_5 5000ms linear 0ms infinite,SigtpPuF_fade 5000ms linear 0ms infinite;}.SigtpPuF_6{stroke-dasharray:209 211;stroke-dashoffset:210;}.start .SigtpPuF_6{animation:SigtpPuF_draw_6 5000ms linear 0ms infinite,SigtpPuF_fade 5000ms linear 0ms infinite;}.SigtpPuF_7{stroke-dasharray:209 211;stroke-dashoffset:210;}.start .SigtpPuF_7{animation:SigtpPuF_draw_7 5000ms linear 0ms infinite,SigtpPuF_fade 5000ms linear 0ms infinite;}.SigtpPuF_8{stroke-dasharray:209 211;stroke-dashoffset:210;}.start .SigtpPuF_8{animation:SigtpPuF_draw_8 5000ms linear 0ms infinite,SigtpPuF_fade 5000ms linear 0ms infinite;}@keyframes SigtpPuF_draw{100%{stroke-dashoffset:0;}}@keyframes SigtpPuF_fade{0%{stroke-opacity:1;}80%{stroke-opacity:1;}100%{stroke-opacity:0;}}@keyframes SigtpPuF_draw_0{10%{stroke-dashoffset: 210}11.263918146253387%{ stroke-dashoffset: 0;}100%{ stroke-dashoffset: 0;}}@keyframes SigtpPuF_draw_1{11.263918146253387%{stroke-dashoffset: 8289}61.152572976226296%{ stroke-dashoffset: 0;}100%{ stroke-dashoffset: 0;}}@keyframes SigtpPuF_draw_2{61.1525729762263%{stroke-dashoffset: 210}62.41649112247968%{ stroke-dashoffset: 0;}100%{ stroke-dashoffset: 0;}}@keyframes SigtpPuF_draw_3{62.41649112247968%{stroke-dashoffset: 210}63.680409268733065%{ stroke-dashoffset: 0;}100%{ stroke-dashoffset: 0;}}@keyframes SigtpPuF_draw_4{63.68040926873307%{stroke-dashoffset: 210}64.94432741498646%{ stroke-dashoffset: 0;}100%{ stroke-dashoffset: 0;}}@keyframes SigtpPuF_draw_5{64.94432741498647%{stroke-dashoffset: 210}66.20824556123985%{ stroke-dashoffset: 0;}100%{ stroke-dashoffset: 0;}}@keyframes SigtpPuF_draw_6{66.20824556123985%{stroke-dashoffset: 210}67.47216370749322%{ stroke-dashoffset: 0;}100%{ stroke-dashoffset: 0;}}@keyframes SigtpPuF_draw_7{67.47216370749322%{stroke-dashoffset: 210}68.73608185374661%{ stroke-dashoffset: 0;}100%{ stroke-dashoffset: 0;}}@keyframes SigtpPuF_draw_8{68.73608185374661%{stroke-dashoffset: 210}70%{ stroke-dashoffset: 0;}100%{ stroke-dashoffset: 0;}}</style></svg>