<svg xmlns="http://www.w3.org/2000/svg" width="288.726" height="315.369" viewBox="0 0 288.726 315.369">
    <defs>
        <style>
            .cls-1{fill:#ccc}.cls-2{fill:#eb7e57}.cls-3{fill:#290708}.cls-4{fill:#f29066}.cls-5{fill:#fffee9}.cls-6{fill:#fff}.cls-7{opacity:.1}.cls-8{fill:#999}.cls-9{fill:#e0e0e0}.cls-10{fill:#0d1114}.cls-11{fill:#ea8c6c}.cls-12{fill:#1e262e}.cls-13{fill:#d1d1d1}.cls-14{fill:#491e17}.cls-16{fill:#d53584}
        </style>
    </defs>
    <g id="Group_8490" transform="translate(-42.98 -30.075)">
        <g id="man" transform="translate(197.709 30.437)">
            <path id="Path_23132" d="M205.724 43.531s8.758-12.769 16.532-13.17c7.62-.394 17.277 13.589 17.277 13.589s1.906 20.115 3.624 28.887c.977 4.985-.342 11.605 2.07 18.135 6.531 17.684-25.768 5.1-37.229 2.981-15.6-2.883-.29-22.038-4.8-29.26-2.158-3.462 2.526-21.162 2.526-21.162z" class="cls-1" transform="translate(-149.669 -30.353)"/>
            <path id="Path_23133" d="M227.415 73.969c-1.338-1.7-.924-10.176-.715-10.956-.07 0-3.814.171-3.888.167a8.584 8.584 0 0 1-7.341 0c-.074 0-4.145-.6-4.216-.6.176.779.677 9.735-.618 11.437-.343.45 5.039 1.3 8.5 1.278 3.503-.02 8.628-.881 8.278-1.326z" class="cls-2" transform="translate(-146.68 -20.543)"/>
            <g id="Group_8358" transform="translate(54.436 5.116)">
                <g id="Group_8350" transform="translate(30.33 17.626)">
                    <g id="Group_8349">
                        <path id="Path_23134" d="M230.755 47.919c-1.248-.518-3.427.51-4.169 2.889v6.337c.648.609 2.2-.125 3.376-2.241 1.059-1.9 1.917-1.731 2.2-3.171.48-2.459-.289-3.35-1.407-3.814z" class="cls-2" transform="translate(-226.586 -47.788)"/>
                    </g>
                </g>
                <g id="Group_8352" transform="translate(0 17.626)">
                    <g id="Group_8351">
                        <path id="Path_23135" d="M204.886 47.919c1.247-.518 3.427.51 4.169 2.889v6.337c-.648.609-2.2-.125-3.376-2.241-1.059-1.9-1.917-1.731-2.2-3.171-.479-2.459.289-3.35 1.407-3.814z" class="cls-2" transform="translate(-203.334 -47.788)"/>
                    </g>
                </g>
                <g id="Group_8353" transform="translate(2.239)">
                    <path id="Path_23136" d="M235.279 43.065c-1.067-.924-9.6-8.1-13.649-8.745a2.507 2.507 0 0 0-.528-.046h-.146c-.025 0 .005.077-.02.08s.026.08.026.08-.076-.08-.1-.08-.086-.08-.112-.08h-.162a2.6 2.6 0 0 0-.537.046c-4.054.647-12.586 7.821-13.653 8.745-3.712 2.765 1.418 12.96 1.418 12.96.3 2.554.146 11.193 1.817 14.431 1.565 3.033 7.2 7.121 11.312 7.121 3.513 0 9.842-3.988 11.407-7.02 1.671-3.238 1.233-11.977 1.537-14.531 0 0 5.103-10.195 1.39-12.961z" class="cls-3" transform="translate(-205.05 -34.275)"/>
                </g>
                <g id="Group_8354" transform="translate(2.33 6.766)">
                    <path id="Path_23137" d="M235.325 41.486c-.728-.629-8.012-2.041-14.384-2.024-6.371-.017-13.78 1.4-14.507 2.024-3.714 2.765 1.628 12.486 1.628 12.486a25.118 25.118 0 0 0 1.958 6.778c1.8 2.9 20.252 3.461 21.739.389a40.584 40.584 0 0 0 1.81-7.166s5.468-9.721 1.756-12.487z" class="cls-4" transform="translate(-205.12 -39.462)"/>
                </g>
                <g id="Group_8357" transform="translate(1.558 2.144)">
                    <g id="Group_8355" transform="translate(27.09 2.4)">
                        <path id="Path_23138" d="M225.3 42.49a3.679 3.679 0 0 1 1.42 2.021c.09.241.172.5.252.766a17.883 17.883 0 0 1 .4 1.748 17.371 17.371 0 0 1-.04 7.23l.35.828s3.3-5.447 3.3-9.613c0-8.921-3.451-6.27-5-7.607-.039-.033-.08-.069-.119-.1l-.01.086z" class="cls-3" transform="translate(-225.297 -37.758)"/>
                    </g>
                    <g id="Group_8356">
                        <path id="Path_23139" d="M210.467 43.17a3.438 3.438 0 0 0-1.514 1.9c-.09.241-.172.5-.252.766a17.883 17.883 0 0 0-.4 1.748 17.383 17.383 0 0 0 .039 7.23l-.348.828s-4.34-4.49-3.3-15.1c.523-5.364 6.6-4.561 6.635-4.6z" class="cls-3" transform="translate(-204.529 -35.918)"/>
                    </g>
                </g>
            </g>
            <g id="Group_8381" transform="translate(61.305 21.019)">
                <g id="Group_8359" transform="translate(13.29 .196)">
                    <path id="Path_23140" d="M227.435 50a29.949 29.949 0 0 0-4.132-1.032 14.1 14.1 0 0 0-3.871.278c-.493.067-.776-2.527-.58-2.574a21.347 21.347 0 0 1 6.1.584c.328.195 3.095 3.016 2.483 2.744z" class="cls-3" transform="translate(-218.788 -46.617)"/>
                </g>
                <g id="Group_8360">
                    <path id="Path_23141" d="M208.663 49.585a13.764 13.764 0 0 1 4.16-.819 29.911 29.911 0 0 1 4.264.385c.493.07.762-2.657.561-2.664a21.986 21.986 0 0 0-5.887.407c-.361.148-3.654 2.951-3.098 2.691z" class="cls-3" transform="translate(-208.6 -46.467)"/>
                </g>
                <g id="Group_8362" transform="translate(8.877 9.975)">
                    <g id="Group_8361">
                        <path id="Path_23142" d="M217.81 54.114a4.1 4.1 0 0 0-2.405 1.607 3.564 3.564 0 0 0 2.405 1.792c.291-.008 2.178-.948 2.407-1.792a5.279 5.279 0 0 0-2.407-1.607z" class="cls-2" transform="translate(-215.405 -54.114)"/>
                    </g>
                </g>
                <g id="Group_8363" transform="translate(5.611 15.677)">
                    <path id="Path_23143" d="M224 58.788c-.841 1.38-3.071 3.866-5.43 3.864-2.285 0-5.519-3.625-5.672-4.166 2.862 1.389 8.667 1.626 11.102.302z" class="cls-5" transform="translate(-212.901 -58.485)"/>
                </g>
                <g id="Group_8369" transform="translate(1.104 3.78)">
                    <g id="Group_8364">
                        <path id="Path_23144" d="M209.56 51.97a5.4 5.4 0 0 0 2.367 1.2 8.081 8.081 0 0 0 2.725.2 6.172 6.172 0 0 0 1.626-.37 7.453 7.453 0 0 0 .113-1.663 3.788 3.788 0 0 0-.905-1.034 4.673 4.673 0 0 0-2.486-.938 4.167 4.167 0 0 0-.875.086 4.154 4.154 0 0 0-2.444 1.447s-.433.784-.121 1.072z" class="cls-3" transform="translate(-209.446 -49.365)"/>
                    </g>
                    <g id="Group_8365" transform="translate(0 .292)">
                        <path id="Path_23145" d="M209.56 52.2a5.411 5.411 0 0 0 2.367 1.2 8.047 8.047 0 0 0 2.725.2 6.223 6.223 0 0 0 1.627-.364 10.849 10.849 0 0 0 .113-1.957 6.408 6.408 0 0 0-.905-.741 4.675 4.675 0 0 0-2.487-.949 4.169 4.169 0 0 0-.875.087 4.152 4.152 0 0 0-2.444 1.445s-.433.785-.121 1.079z" class="cls-6" transform="translate(-209.446 -49.589)"/>
                    </g>
                    <g id="Group_8366" transform="translate(1.651 .292)">
                        <path id="Path_23146" d="M210.712 51.61a2.325 2.325 0 0 0 .83 1.783 8.047 8.047 0 0 0 2.725.2 2.322 2.322 0 0 0 1.1-1.979 2.3 2.3 0 0 0-.269-1.083 4.675 4.675 0 0 0-2.487-.938 4.169 4.169 0 0 0-.875.087 2.325 2.325 0 0 0-1.024 1.93z" class="cls-3" transform="translate(-210.712 -49.589)"/>
                    </g>
                    <g id="Group_8368" class="cls-7" transform="translate(1.651 .261)">
                        <g id="Group_8367">
                            <path id="Path_23147" d="M210.712 51.492a4.722 4.722 0 0 1 4.658 0 2.778 2.778 0 0 0-.312-1.05 4.47 4.47 0 0 0-2.444-.877 4.268 4.268 0 0 0-.875.1 2.252 2.252 0 0 0-1.027 1.827z" class="cls-8" transform="translate(-210.712 -49.565)"/>
                        </g>
                    </g>
                </g>
                <g id="Group_8380" transform="translate(14.324 3.78)">
                    <g id="Group_8372">
                        <g id="Group_8371">
                            <g id="Group_8370">
                                <path id="Path_23148" d="M226.412 51.97a5.4 5.4 0 0 1-2.366 1.2 8.086 8.086 0 0 1-2.726.2 6.184 6.184 0 0 1-1.627-.37 7.557 7.557 0 0 1-.112-1.663 3.305 3.305 0 0 1 .9-1.034 4.718 4.718 0 0 1 2.487-.937 4.188 4.188 0 0 1 .877.086 4.146 4.146 0 0 1 2.443 1.447s.436.783.124 1.071z" class="cls-3" transform="translate(-219.581 -49.365)"/>
                            </g>
                        </g>
                    </g>
                    <g id="Group_8375" transform="translate(0 .292)">
                        <g id="Group_8374">
                            <g id="Group_8373">
                                <path id="Path_23149" d="M226.412 52.2a5.413 5.413 0 0 1-2.366 1.2 8.052 8.052 0 0 1-2.726.2 6.235 6.235 0 0 1-1.627-.364 11 11 0 0 1-.112-1.957 6.315 6.315 0 0 1 .9-.741 4.683 4.683 0 0 1 2.487-.938 4.19 4.19 0 0 1 .877.087 4.145 4.145 0 0 1 2.443 1.445s.436.774.124 1.068z" class="cls-6" transform="translate(-219.581 -49.589)"/>
                            </g>
                        </g>
                    </g>
                    <g id="Group_8377" transform="translate(.637 .292)">
                        <g id="Group_8376">
                            <path id="Path_23150" d="M224.727 51.61a2.325 2.325 0 0 1-.83 1.783 8.052 8.052 0 0 1-2.726.2 2.327 2.327 0 0 1-.835-3.061 4.683 4.683 0 0 1 2.487-.938 4.19 4.19 0 0 1 .877.087 2.328 2.328 0 0 1 1.027 1.929z" class="cls-3" transform="translate(-220.069 -49.589)"/>
                        </g>
                    </g>
                    <g id="Group_8379" class="cls-7" transform="translate(.637 .261)">
                        <g id="Group_8378">
                            <path id="Path_23151" d="M224.727 51.492a4.722 4.722 0 0 0-4.658 0 2.778 2.778 0 0 1 .312-1.05 4.466 4.466 0 0 1 2.443-.877 4.292 4.292 0 0 1 .877.1 2.255 2.255 0 0 1 1.026 1.827z" class="cls-8" transform="translate(-220.069 -49.565)"/>
                        </g>
                    </g>
                </g>
            </g>
            <path id="Path_23152" d="M196.32 90.192c3.192 15.177 4.847 43.705 4.824 62.3 1.144 51.288-4.689 96.063-6.783 163.759 1.36 7.054 64.091 7.054 63.272-.256 0-.132-4.987-106.585-4.987-106.585-1.384-29.123-2.756-53.895-2.768-58.166-.034-12.453 2.888-54.4 3.177-59.983-13.537-13.034-46.03-12.394-56.735-1.069z" class="cls-9" transform="translate(-151.629 -14.756)"/>
            <path id="Path_23153" d="M202.944 140.04c0 35.365-1.59 127.6.129 131.756 3.968 9.591 44.253 27.474 43.972 19.268-.072-4.054-6.343-153.352-6.354-153.409-1.072-5.663-37.747-4.255-37.747 2.385z" class="cls-6" transform="translate(-149.22 1.235)"/>
            <path id="Path_23154" d="M295.587 129.234c-.3-5.473-15.646-42.63-24.607-48.306-4.032-2.554-28.634-8.923-28.634-8.923l-.027-.025a8.412 8.412 0 0 0-.755-2.87c-3.694 2.365-12.413 1.825-15.3.154a10.914 10.914 0 0 0-.711 2.763c-.027.009-22.784 6.7-26.049 9.877-4.066 3.95-19.219 32.8-23.047 39.738-.5.9-14.858 1.464-14.858 1.464l4.068 24.75 27.442-22.016 16.982-22.648s2.64 8.462 24.528 8.139c24.764-.363 26.268-8.139 26.268-8.139l17.873 27.027c-.815 10.896 17.331 8.298 16.827-.985z" class="cls-6" transform="translate(-161.601 -18.555)"/>
            <path id="Path_23155" d="M210.832 71.518c3.222 1.423 8.353 1.5 8.353 1.5-1.117 11.637 1.067 31.084.355 31.084-.893-.5-2.542-20.076-1.7-30.369-2.749-.287-5.8-1.16-7.008-2.215z" class="cls-9" transform="translate(-146.615 -17.822)"/>
            <path id="Path_23156" d="M222.058 31.267c12.188.29 17.277 13.589 17.277 13.589 10.129 11.218-.356 13.047-6.041 7.115-5-5.211-17.838-5.748-23.388.41-5.863 6.505-13.131 2.7-4.44-7.714 0 0 4.162-13.696 16.592-13.4z" class="cls-2" transform="translate(-149.471 -30.076)"/>
            <path id="Path_23157" d="M223.167 30.36c12.188.29 17.277 13.589 17.277 13.589 10.129 11.219 1.752 18.709 4.708 29.578.561 2.058 4.058 12.9 1.837 15.244l-8.781-2.8c5.154-1.923 1.143-7.919 1.143-16.986 0-5.986-2.1-14.381-7.782-20.311-4.995-5.211-12.9-4.86-18.449 1.3-5.863 6.5-6.543 12.9-6.384 19.712.179 7.6-3.309 15.418.612 16.768.014.853-6.3 3.694-7.232 3.5-6.022-6.941 1.688-15.19 1.28-18.2-1.257-9.264-3.51-17.574 5.181-27.991-.002-.002 4.161-13.699 16.59-13.403z" class="cls-6" transform="translate(-150.58 -30.352)"/>
            <path id="Path_23158" d="M238.174 39.191c.991-.189.745-2.267-1.13-2.451a125.2 125.2 0 0 0-31.5-.16c-1.743.608-2.01 2.021-.905 2.611a1.6 1.6 0 0 0 .134 2.954l-.47.574a289.424 289.424 0 0 1 34.775.108l-.437-.494c.803.16 1.806-2.649-.467-3.142z" class="cls-1" transform="translate(-148.783 -28.736)"/>
            <path id="Path_23159" d="M238.174 39.191c.991-.189.745-2.267-1.13-2.451a125.2 125.2 0 0 0-31.5-.16c-1.743.608-2.01 2.021-.905 2.611a1.6 1.6 0 0 0 .134 2.954 242.769 242.769 0 0 1 33.869.188c.802.16 1.805-2.649-.468-3.142z" class="cls-3" transform="translate(-148.783 -28.736)"/>
            <path id="Path_23160" d="M270.5 118.457c-3.737 8.858-15.714 20.5-22.936 30.921l-5.49-6.562c4.367-6.688 7.961-19.192 12.165-25.278l.029-1.207c5.785-1.032 10.268.715 12.026-1.593z" class="cls-9" transform="translate(-137.106 -4.666)"/>
            <path id="Path_23161" d="M270.5 118.457c-3.737 8.858-15.714 20.5-22.936 30.921l-5.49-6.562c4.367-6.688 7.961-19.192 12.165-25.278.207-.3 10.3-.492 12.055-2.8z" class="cls-6" transform="translate(-137.106 -4.666)"/>
            <g id="Group_8383" transform="translate(88.485 138.149)">
                <g id="Group_8382">
                    <path id="Path_23162" d="M251.409 142.825s-.728 1.248-1.243 2.264a20.5 20.5 0 0 1-4.869 6.093 29.749 29.749 0 0 1-7.589 4.413c-3.554 1.6-4.329-.541-3.565-.766-3.831 1.546-3.564-1.14-2.917-1.41-1.805.5-2.619-1.616-.635-2.986.1-.072-2.564-.626-.1-2.871.528-.48 3.828-2.319 5.151-3.1 2.476-1.473 3.856-3.128 3.767-3.729-.014-1.448-.157-3.852-.157-3.852l6.662-.617s5.653 6.331 5.495 6.561z" class="cls-4" transform="translate(-229.437 -136.263)"/>
                </g>
            </g>
        </g>
        <g id="woman" transform="translate(166.484 48.964)">
            <g id="Group_8432">
                <g id="Group_8400" transform="translate(0 38.173)">
                    <g id="Group_8384" transform="translate(17.188 223.145)">
                        <path id="Path_23163" d="M182.746 259.19c1 1.653 12.736 10.263 13.694 13.349a17.322 17.322 0 0 1 .764 5.417c-.62 4.132-10.483-.188-11.939-2.741-1.864-3.266-6.758-13.442-6.758-13.442l-5.258-12.09s5.055-5.465 6.282-2.784c2.61 5.734 2.062 10.349 3.215 12.291z" class="cls-10" transform="translate(-144.019 -244.507)"/>
                        <path id="Path_23164" d="M167.154 265.8s-9.969 2.84-12.642 4.928c-1.042.815-3.651 4.648-3.672 6.005-.037 2.339 9.062 1.882 10.382 1.388 2.3-.858 10.266-8.215 10.266-8.215a4.574 4.574 0 0 0 1.409-3.7l-1.916-16.319s-6.753-8.269-7.168-3.523c-.363 4.171 3.576 17.188 3.341 19.436z" class="cls-10" transform="translate(-150.84 -244.893)"/>
                    </g>
                    <g id="body" transform="translate(36.843)">
                        <g id="Group_8385">
                            <path id="Path_23165" d="M190.986 91.642l-8.4-5.21c-.942-.335-3.131-1.908-3.131-2.914v-2.6c0-3.326-.167-6.924-.167-6.924s-9.457-.168-9.534-.168l-.125 9.748a2.277 2.277 0 0 1-.3 1.083 3.481 3.481 0 0 1-1.6 1.269l-1.816.659c3.012 1.541 20.587 10.369 25.073 5.057z" class="cls-11" transform="translate(-165.908 -73.821)"/>
                        </g>
                    </g>
                    <g id="Group_8386" transform="translate(0 16.77)">
                        <path id="Path_23166" d="M161.427 91.06c-4.171 3.9-25.305 37.533-23.671 41.81.608 1.589 3.147 6.45 18.3 12.513.964.385.8-2.79.8-2.79-2.554 1.22-4.811-8.935-6.716-11.317 1.983-3.133 15.462-24.168 15.462-24.168 1.547-1.4 3.9-1.452 5.872-2.9 6.36-4.687-4.815-18.585-10.047-13.148z" class="cls-10" transform="translate(-137.662 -85.722)"/>
                        <path id="Path_23167" d="M162.31 87.706c-6.078 4.509-26.187 41.842-24.553 46.119.608 1.589 6.975 12.259 22.128 18.322l2.3-3.073s-8.973-14.911-12.049-16.842a17.024 17.024 0 0 0-8.383-1.9c2.478-.751 7.915 1.117 7.915 1.117 2.094-3.982 13.327-23.818 18.311-30.538 14.211-.847 1.647-18.633-5.669-13.205z" class="cls-12" transform="translate(-137.663 -86.678)"/>
                    </g>
                    <g id="Group_8388" transform="translate(26.084 15.985)">
                        <g id="Group_8387">
                            <path id="Path_23168" d="M192.682 323.1c-26.049-16.758-31.1-171.315-31.839-192.384v-.012c0-2.157.121-4.371-.048-6.664-.429-6.045-6.886-14.086.083-26.524 1.04-1.862-3.217-10.516-3.217-10.516l3.994-.926c15.148 3.581 20.06 4.371 37.771 3.185l.474.18c1.311 2.361-10.856 27.167-11.584 37.107-1.243 16.978 7.976 33.124 12.3 54.631 4.642 23.086 12.779 134.761 6.42 139.843-4.886.705-11.265 2.08-14.354 2.08z" class="cls-10" transform="translate(-157.66 -86.076)"/>
                        </g>
                    </g>
                    <g id="Group_8393" transform="translate(14.664 9.913)">
                        <g id="Group_8390" transform="translate(10.957)">
                            <g id="Group_8389">
                                <path id="Path_23169" d="M193.416 96.178c3.857-4.545 7.31-5.588 7.31-5.588a12.078 12.078 0 0 0-.908-.89c-3.909-2.584-17.714-8.279-17.714-8.279a11.405 11.405 0 0 1-9.911.275c-4.158 1.741-10.7 4.316-14.888 6.727 0 0 4.024 8.722 2.99 10.59-3.124 5.568-2.915 10.007-2.362 14.027.345 2.516 39.267 8.911 35.483-16.862z" class="cls-12" transform="translate(-157.305 -81.421)"/>
                            </g>
                        </g>
                        <g id="Group_8392" transform="translate(0 42.745)">
                            <g id="Group_8391">
                                <path id="Path_23170" d="M152.1 312.464c-7.333-2.3-.056-102.85 2.173-125.661 3.269-33.451 9.676-48.117 9.017-72.6 32.306-1.028 34.1 75.693 34.373 92.919.15 9.286-1.362 79.807-2.318 107.423-12.354 1.437-32.431.755-43.245-2.081z" class="cls-12" transform="translate(-148.905 -114.191)"/>
                            </g>
                        </g>
                    </g>
                    <g id="Group_8398" transform="translate(59.689 19.077)">
                        <g id="Group_8395" transform="translate(1.749 3.371)">
                            <g id="Group_8394">
                                <path id="Path_23171" d="M198.506 131.367s-12.5-23.075-13.742-27.671c-.05-4.693 5.041-15.644 7.457-11.9 1.807 2.8 14.189 29.914 14.189 29.914.1.62.513.622.513.622s3.117 5 2.405 6.089c-3.135 4.814-10.822 2.946-10.822 2.946z" class="cls-10" transform="translate(-184.764 -91.03)"/>
                            </g>
                        </g>
                        <g id="Group_8397">
                            <g id="Group_8396">
                                <path id="Path_23172" d="M203.838 129.182a18.666 18.666 0 0 0 2.981-6.686c-.652-2.1-9.051-28.085-14.043-34.045-.908-.176-11.794 3.937-8.849 8.923 6.38 10.8 14.987 34.779 14.987 34.779 1.555 3.352 5.451 2.463 6.779 2.186 8.97-1.867 22.19-17.483 22.19-17.483l-1.718-3.005c-3.982 1.9-11.95 6.785-18.834 9.266-.147.055-1.046 3.742-3.493 6.065z" class="cls-12" transform="translate(-183.423 -88.446)"/>
                            </g>
                        </g>
                    </g>
                    <g id="hand" transform="translate(102.432 32.434)">
                        <path id="Path_23173" d="M219.054 98.7c-.685.123-.367 3.3-.73 5.013-.237 1.118-.79 1.925-1.28 3.437-.406 1.252-.853 3.582-.853 3.582l1.718 3.005s5.658-1.277 6.247-1.854.755-4.979.626-5.591a4.875 4.875 0 0 0-.8-1.782c-.233-.318-3.8.462-3.8.462-.414.492 1.107-6.672-1.128-6.272z" class="cls-2" transform="translate(-216.191 -98.686)"/>
                        <g id="hand-2" transform="translate(3.689 4.616)">
                            <g id="Group_8399">
                                <path id="Path_23174" d="M223.893 103.8c1.533-.1 1.576 1.358.88 1.991-.06.048-.119.1-.036.1a1.137 1.137 0 0 1 .686 2.075c-.065.04 0 .143.069.171.844.323 1.4 1.79-.487 2.351-3.36 1-5.07-.025-3.6-1.589-1.886.562-2.36-1.5-.964-2a1.017 1.017 0 1 1-.753-1.889c-.824-.031-1.068-1.59 1.239-2.314a6.873 6.873 0 0 1 1.693-.47c1.368-.023 1.449.759 1.4 1.221-.006.13-.055.353-.127.353z" class="cls-4" transform="translate(-219.019 -102.226)"/>
                            </g>
                        </g>
                    </g>
                    <path id="Path_23175" d="M157 135.948l.479.284c.541-.69 3.462-4.975 4.614-5.572 1.243-.644 4.856-.87 5.618-.858.931.014 3.729-.111 4.8.511 1.241.717.355 1.2-.194 1.319.582.039 1.658.19 1.328.779a2.033 2.033 0 0 1-1.611.733.5.5 0 0 1 .3.66c-.175.625-1.981.772-1.981.772s1.3.4.28.884c-1.734.82-7.315.8-8.035 1.254-1.857 1.177-3.925 5.218-3.925 5.218-.984.553-3.414-2.347-3.977-2.91z" class="cls-2" transform="translate(-132.477 -56.781)"/>
                </g>
                <g id="Group_8431" transform="translate(23.722)">
                    <g id="Group_8401">
                        <path id="Path_23176" d="M200.26 88.1c-17.178 21-39.63 15.2-44.409.528-.095-.428 41.328-3.817 44.409-.528z" class="cls-10" transform="translate(-155.848 -31.734)"/>
                        <path id="Path_23177" d="M161.564 97.676c1.494-.92 2.151-7.519 4.6-7.165a30.806 30.806 0 0 1-6.264-9.031c-2.272-5.562-2.253-17.668-1.478-21.928s7.936-13.644 17.926-15c10.036 1.554 17.844 10.416 18.9 14.644s.909 13.834-.788 20.3c-.757 2.88-5.878 10.4-5.878 10.4 3.535-.2 4.824 2.764 7.516 8.759 0 0 1.077-1.032 4.158 2.257-21.1 17.817-39.042 14.608-44.409.528-.091-.419 2.136-3.44 5.717-3.764z" class="cls-6" transform="translate(-155.849 -44.556)"/>
                    </g>
                    <g id="Group_8429" transform="translate(8.729 8.254)">
                        <g id="girl">
                            <path id="Path_23178" d="M164.38 81.521c2.207 2.627 7.149 6.3 10.151 6.393 1.6-.08 8.376-3.552 10.225-6.037 3.2-4.3 1.994-8.583 1.991-12.934 0-1.427.047-8.676-2.446-11.326a23.611 23.611 0 0 0-9.727-4.607c-3.562.428-8.557 4.3-9.067 4.848-1.623 1.753-2.561 7.854-2.507 11.32.051 3.367-1.472 8.947 1.38 12.343z" class="cls-13" transform="translate(-162.511 -50.237)"/>
                            <path id="Path_23179" d="M164.289 80.594c2.229 2.643 7.359 6.339 10.389 6.449 1.612-.085 8.287-3.588 10.153-6.085 3.224-4.338 2.02-9.626 2.009-14.014 0-.266 0-.751-.013-1.358-.06-2.666-.412-7.89-2.448-10.059a23.888 23.888 0 0 0-9.805-4.641c-3.587.424-8.6 4.359-9.139 4.884-2.469 2.39-2.581 7.915-2.533 11.406.013.617-.037 1.308-.1 2.06-.25 3.307-.865 8.559 1.487 11.358z" class="cls-4" transform="translate(-162.541 -50.884)"/>
                            <path id="Path_23180" d="M162.894 63.028A11.555 11.555 0 0 1 165 58.01c.52-.57 5.765-3.917 9.5-4.353a28.913 28.913 0 0 1 10.172 4.11 8.039 8.039 0 0 1 1.709 3.539c-.314-2.229-.921-4.52-2.108-5.781a23.909 23.909 0 0 0-9.805-4.641c-3.588.424-8.63 4.327-9.139 4.884-1.955 2.139-2.048 4.278-2.435 7.26z" class="cls-2" transform="translate(-162.433 -50.884)"/>
                        </g>
                        <g id="face" transform="translate(.846 12.023)">
                            <g id="nose" transform="translate(9.135 10.13)">
                                <g id="Group_8402">
                                    <path id="Path_23181" d="M174.523 69.421a2.772 2.772 0 0 1-2.134 1.494c-.35-.021-2.015-.774-2.2-1.556a2.767 2.767 0 0 1 2.279-1.491c1.175-.013 2.055 1.553 2.055 1.553z" class="cls-2" transform="translate(-170.192 -67.867)"/>
                                </g>
                            </g>
                            <g id="Group_8410" transform="translate(14.29 3.446)">
                                <g id="Group_8404" transform="translate(0 .644)">
                                    <g id="Group_8403">
                                        <path id="Path_23182" d="M181.094 65.851a5.469 5.469 0 0 1-2.394 1.239 8.142 8.142 0 0 1-2.768.226 6.3 6.3 0 0 1-1.657-.355 11.009 11.009 0 0 1-.132-1.987 6.5 6.5 0 0 1 .91-.762 4.764 4.764 0 0 1 2.519-.976 4.314 4.314 0 0 1 .891.08 4.222 4.222 0 0 1 2.5 1.445s.445.794.131 1.09z" class="cls-6" transform="translate(-174.144 -63.237)"/>
                                    </g>
                                </g>
                                <g id="Group_8405" transform="translate(.648 .644)">
                                    <path id="Path_23183" d="M179.375 65.272a2.361 2.361 0 0 1-.826 1.818 8.142 8.142 0 0 1-2.768.226 2.362 2.362 0 0 1-.878-3.1 4.764 4.764 0 0 1 2.519-.976 4.314 4.314 0 0 1 .891.08 2.364 2.364 0 0 1 1.062 1.952z" class="cls-14" transform="translate(-174.641 -63.237)"/>
                                </g>
                                <g id="Group_8406" class="cls-7" transform="translate(.647 .612)">
                                    <path id="Path_23184" d="M179.374 65.151a4.8 4.8 0 0 0-4.734.044 2.846 2.846 0 0 1 .308-1.07 4.537 4.537 0 0 1 2.474-.913 4.15 4.15 0 0 1 .891.1 2.289 2.289 0 0 1 1.061 1.839z" class="cls-8" transform="translate(-174.64 -63.213)"/>
                                </g>
                                <g id="Group_8409">
                                    <g id="Group_8408">
                                        <g id="Group_8407">
                                            <path id="Path_23185" d="M174.144 65.125v-.012a1.394 1.394 0 0 1 .524-.753c1.088-.814 1.88-1.52 2.747-1.538 1.816-.035 3.672.446 3.964-.08.053.41-.536.745-.648.9.248.087.758.082 1.611-.428 0 0-.657 1.542-1.381 1.7a22.472 22.472 0 0 0-3.373-1.407 7.927 7.927 0 0 0-3.444 1.618z" class="cls-3" transform="translate(-174.144 -62.743)"/>
                                        </g>
                                    </g>
                                </g>
                            </g>
                            <g id="Group_8418" transform="translate(0 3.639)">
                                <g id="Group_8412" transform="translate(1.185 .573)">
                                    <g id="Group_8411">
                                        <path id="Path_23186" d="M164.216 66.011a5.473 5.473 0 0 0 2.416 1.194 8.173 8.173 0 0 0 2.771.175 6.328 6.328 0 0 0 1.65-.387 11.107 11.107 0 0 0 .1-1.989 6.545 6.545 0 0 0-.925-.743 4.762 4.762 0 0 0-2.537-.929 4.223 4.223 0 0 0-.89.1 4.219 4.219 0 0 0-2.469 1.492s-.432.796-.116 1.087z" class="cls-6" transform="translate(-164.097 -63.33)"/>
                                    </g>
                                </g>
                                <g id="Group_8413" transform="translate(2.859 .573)">
                                    <path id="Path_23187" d="M165.381 65.4a2.355 2.355 0 0 0 .86 1.8 8.173 8.173 0 0 0 2.771.175 2.366 2.366 0 0 0 .82-3.12 4.762 4.762 0 0 0-2.537-.929 4.223 4.223 0 0 0-.89.1 2.365 2.365 0 0 0-1.024 1.974z" class="cls-14" transform="translate(-165.381 -63.33)"/>
                                </g>
                                <g id="Group_8414" class="cls-7" transform="translate(2.858 .541)">
                                    <path id="Path_23188" d="M165.38 65.281a4.8 4.8 0 0 1 4.732-.044 2.823 2.823 0 0 0-.326-1.064 4.534 4.534 0 0 0-2.491-.866 4.237 4.237 0 0 0-.89.112 2.288 2.288 0 0 0-1.025 1.862z" class="cls-8" transform="translate(-165.38 -63.306)"/>
                                </g>
                                <g id="Group_8417">
                                    <g id="Group_8416">
                                        <g id="Group_8415">
                                            <path id="Path_23189" d="M171.424 65.136v-.01a1.391 1.391 0 0 0-.537-.742c-1.1-.794-1.907-1.486-2.776-1.487-1.816 0-3.663.514-3.965-.005-.046.411.55.734.667.891-.247.093-.757.1-1.619-.4 0 0 .686 1.529 1.413 1.671a22.412 22.412 0 0 1 3.369-1.475 7.748 7.748 0 0 1 3.448 1.557z" class="cls-3" transform="translate(-163.189 -62.891)"/>
                                        </g>
                                    </g>
                                </g>
                            </g>
                            <g id="Group_8420" transform="translate(.233 .187)">
                                <g id="Group_8419">
                                    <path id="Path_23190" d="M163.372 61.462a14.981 14.981 0 0 1 3.219-.3c1.278.13 4.3.588 4.3.588.7-.32 1.038-.924.874-1.05-.459-.355-5.822-.554-6.538-.4-.397.08-1.953 1.021-1.855 1.162z" class="cls-3" transform="translate(-163.368 -60.244)"/>
                                </g>
                            </g>
                            <g id="Group_8422" transform="translate(14.167)">
                                <g id="Group_8421">
                                    <path id="Path_23191" d="M182.491 61.266a10.011 10.011 0 0 0-2.646-.266c-1.276.154-4.863.691-4.863.691-.71-.307-1.055-.905-.894-1.034.453-.363 5.811-.663 6.53-.523.395.078 1.969.991 1.873 1.132z" class="cls-3" transform="translate(-174.05 -60.101)"/>
                                </g>
                            </g>
                            <g id="mouth" transform="translate(5.895 14.958)">
                                <g id="Group_8424" transform="translate(0 .393)">
                                    <g id="Group_8423">
                                        <path id="Path_23192" fill="#fff5f7" d="M178.015 72.025a36.991 36.991 0 0 1-10.307-.155c4.7 4.744 7.009 2.982 10.307.155z" transform="translate(-167.708 -71.87)"/>
                                    </g>
                                </g>
                                <g id="Group_8426">
                                    <g id="Group_8425">
                                        <path id="Path_23193" d="M172.963 72.44c.856.034 3.346.485 5.052-.323-.66.1-3.206-.989-5.168-.231-1.044-.716-4.357-.009-5.139.076 2.117.905 4.402.445 5.255.478z" class="cls-16" transform="translate(-167.708 -71.569)"/>
                                    </g>
                                </g>
                                <g id="Group_8428" transform="translate(0 .393)">
                                    <g id="Group_8427">
                                        <path id="Path_23194" d="M178.015 72.025c-2.157.188-2.554 2.635-5.07 2.6-2.223-.027-2.884-2.521-5.237-2.759 1.6 1.963 2.951 4.334 5.237 4.355 1.761.02 3.285-1.839 5.07-4.196z" class="cls-16" transform="translate(-167.708 -71.87)"/>
                                    </g>
                                </g>
                            </g>
                        </g>
                    </g>
                    <g id="Group_8430" transform="translate(3.62 35.67)">
                        <path id="Path_23195" d="M158.624 71.9c2.752 10.892 15.281 15.473 20.052 20.826-2.797-6.095-14.097-8.821-20.052-20.826z" class="cls-13" transform="translate(-158.624 -71.902)"/>
                    </g>
                    <path id="Path_23196" d="M188.214 71.347C185.523 83 179.59 83.762 176.382 87.021c2.501-4.537 6.129-3.508 11.832-15.674z" class="cls-13" transform="translate(-149.599 -36.401)"/>
                    <path id="Path_23197" d="M160.293 85.28c3.485 6.543 12.784 17.06 34.539.989-22.124 13.729-32.778 3.2-34.539-.989z" class="cls-13" transform="translate(-154.578 -32.16)"/>
                </g>
            </g>
        </g>
        <g id="woman-2" transform="translate(42.98 50.551)">
            <g id="Group_8433" transform="translate(4.154 258.649)">
                <path id="Path_23198" d="M60.662 258.478c-1 1.653-12.736 10.262-13.694 13.349a17.317 17.317 0 0 0-.764 5.417c.62 4.132 10.483-.189 11.94-2.741 1.864-3.268 6.757-13.443 6.757-13.443l5.258-12.09s-5.053-5.465-6.282-2.784c-2.608 5.734-2.062 10.35-3.215 12.292z" class="cls-10" transform="translate(-46.164 -243.642)"/>
                <path id="Path_23199" d="M78.406 264.968s9.969 2.841 12.642 4.929c1.042.815 3.651 4.648 3.672 6 .037 2.34-9.06 1.882-10.382 1.389-2.3-.858-10.266-8.215-10.266-8.215a4.584 4.584 0 0 1-1.409-3.7l1.917-16.319s6.752-8.269 7.166-3.524c.364 4.178-3.574 17.194-3.34 19.44z" class="cls-10" transform="translate(-38.103 -244.063)"/>
            </g>
            <g id="Group_8436" transform="translate(0 36.419)">
                <g id="body-2" transform="translate(25.498)">
                    <path id="Path_23200" d="M87.391 91.349l-8.906-5.161C77.552 85.855 74.8 84.3 74.8 83.3v-2.582c0-3.295.416-6.86.416-6.86s-9.079-.166-9.156-.166l.021 9.658a2.2 2.2 0 0 1-.226 1.074 3.351 3.351 0 0 1-1.551 1.256l-1.78.652c2.991 1.535 20.422 10.281 24.867 5.017z" class="cls-11" transform="translate(-62.527 -73.693)"/>
                </g>
                <path id="Path_23201" d="M87.712 93.112c4.171 3.9 20.392 38.471 18.756 42.748-.608 1.589-14.286.788-12.38-1.593-1.988-3.135-10.548-25.106-10.548-25.106-1.548-1.4-3.9-1.453-5.872-2.9-6.368-4.686 4.812-18.585 10.044-13.149z" class="cls-10" transform="translate(-33.001 -68.16)"/>
                <path id="Path_23202" d="M87.327 89.535c6.078 4.509 21.272 42.78 19.636 47.057-.607 1.589-6.081 8.163-20.167 17.384l-2.3-3.073S91.508 136.93 94.584 135a17.014 17.014 0 0 1 8.383-1.9c-2.48-.751-7.915 1.117-7.915 1.117-2.094-3.982-8.413-24.756-13.4-31.476-14.206-.848-1.643-18.634 5.675-13.206z" class="cls-12" transform="translate(-33.177 -69.184)"/>
                <path id="Path_23203" d="M103.768 315.5c-.2 4.426-25.894 4.3-42.24 4.423-8.722.063-17.99-1.75-18.521-5.3.013-3.2-.944-93.183 7.52-135.253 4.288-21.3 9.762-36.337 8.527-53.165-.655-8.946-6.288-28.783-6.634-34.269a2.419 2.419 0 0 1 .12-1.161l.468-.185c17.545 1.174 22.4.4 37.411-3.151l3.942.914s-4.261 8.575-3.227 10.429c5.276 9.4 2.743 16.272 1.063 21.658a20.148 20.148 0 0 0-.9 4.61c-.16 2.274-.031 4.473-.031 6.609v.013C89.964 164.7 103.768 315.5 103.768 315.5z" class="cls-10" transform="translate(-42.98 -69.509)"/>
                <g id="Group_8434" transform="translate(3.51 17.989)">
                    <path id="Path_23204" d="M55.1 87.484c-7.705 4.711-9.439 30.57-8.334 55.416.072 1.607-.59 33.6-.974 39.981l4.2-2.009s9.153-30.859 7.829-38.3c-.612-3.438.047-15.664-.145-25.612-.1-5.437-.948-11.213-.106-15.307-.251-5.491 2.937-8.611-2.47-14.169z" class="cls-10" transform="translate(-45.635 -87.484)"/>
                    <path id="Path_23205" d="M53.393 87.837c-10.093 4.016-7.7 30.109-6.6 54.955.072 1.607-1.638 34.081-.974 39.981l4.2-2.009s6.839-30.121 6.427-38.46c-.933-18.882 3.118-37.976 3.118-37.976 5.307-4.775 1.023-12.237-6.171-16.491z" class="cls-12" transform="translate(-45.67 -87.377)"/>
                </g>
                <g id="Group_8435" transform="translate(9.425 17.93)">
                    <path id="Path_23206" d="M89.179 98.787a22.5 22.5 0 0 1 2.067 17.459c-11.874 1.2-33.917 1.7-33.917-11.373-3.137-3.707-6.14-10.589-7.115-12.937a2.411 2.411 0 0 1 .123-1.161l.47-.185c17.545 1.174 22.4.4 37.413-3.151l3.941.914s-4.01 8.575-2.982 10.434z" class="cls-12" transform="translate(-50.205 -87.439)"/>
                    <path id="Path_23207" d="M55.329 277.535c3.151 20.544 19.823 36.316 40.2 32.237 3.258-.652 5.272-1.56 5.272-2.829.012-7.987-1.14-45.235-3.1-68.976-.942-11.475-2.092-23.735-3.536-35.68-3.059-25.314-6.942-82.567-5.793-87.281-12.736-.419-21.645 13.337-26.527 29.533-.046.151-.021.3-.067.454-6.789 22.856-7.346 52.534-7.5 62.467-.148 9.107-3.147 42.718 1.051 70.075z" class="cls-12" transform="translate(-49.324 -79.051)"/>
                </g>
                <path id="Path_23208" d="M85.948 139.415l-.451 1.072c.163.861 2.073 6.14 1.764 7.4-.334 1.36-2.544 4.228-3.055 4.794-.623.691-2.373 2.879-3.548 3.278-1.358.46-1.136-.523-.865-1.015-.412.411-1.235 1.122-1.46.485a2.028 2.028 0 0 1 .509-1.694.5.5 0 0 1-.694-.209c-.356-.543.724-2 .724-2s-1.158.711-.85-.372c.524-1.844 4.092-6.625 3.991-7.472-.2-1.728-.415-6.345-.415-6.345.232-1.1 1.252-.943 2.048-1z" class="cls-4" transform="translate(-32.329 -54.623)"/>
            </g>
            <g id="Group_8457" transform="translate(11.025)">
                <g id="Group_8437">
                    <path id="Path_23209" d="M51.591 88.456c32.1 28.441 37.557 14.912 42.142.84.09-.413-39.186-3.996-42.142-.84z" class="cls-10" transform="translate(-51.383 -33.173)"/>
                    <path id="Path_23210" d="M88.748 98.028c-.96-2.884.584-5.612-4.743-8.172a36.7 36.7 0 0 0 5.275-8.664c2.181-5.336 1.474-18.059.732-22.145S80.85 47.165 74.319 45.773h-2.007c-10 1.366-16.992 10.121-17.562 11.828-.98 2.939-4.233 18.957 3.9 30.352 1.66 2.326-8.559 5.557-3.333 10.075-.974.116-4.813.357-3.678 3.027 29.521 23.679 36.994 14.346 42.142.84 1.06-4.356-3.765-3.671-5.033-3.867z" class="cls-12" transform="translate(-51.432 -45.773)"/>
                </g>
                <g id="Group_8455" transform="translate(9.852 7.918)">
                    <g id="girl-2">
                        <path id="Path_23211" d="M80.852 81.232c-2.117 2.52-7.118 6.038-10 6.132-1.535-.076-8.1-3.282-9.873-5.665-3.071-4.127-1.589-8.357-1.585-12.531 0-1.37-.044-8.323 2.345-10.866a22.659 22.659 0 0 1 9.33-4.419c3.418.411 8.209 4.122 8.7 4.65 1.557 1.683 2.457 7.534 2.405 10.859-.048 3.23 1.415 8.582-1.322 11.84z" class="cls-10" transform="translate(-58.969 -51.222)"/>
                        <path id="Path_23212" d="M80.985 80.344c-2.139 2.534-7.061 6.081-9.967 6.185-1.546-.082-8.282-3.209-10.071-5.6-3.093-4.162-1.607-9.467-1.6-13.677 0-.256 0-.721.012-1.3.059-2.558.4-7.569 2.349-9.65a22.9 22.9 0 0 1 9.4-4.453c3.442.407 8.278 4.151 8.767 4.685 1.569 1.7 2.476 7.593 2.43 10.94-.012.593.034 1.256.093 1.977.253 3.169.842 8.207-1.413 10.893z" class="cls-4" transform="translate(-58.985 -51.843)"/>
                        <path id="Path_23213" d="M81.884 63.493a11.217 11.217 0 0 0-1.848-4.813c-.5-.547-5.61-4.062-9.191-4.481a24.864 24.864 0 0 0-9.679 4.248 7.746 7.746 0 0 0-1.64 3.4c.3-2.141.884-4.337 2.023-5.546a22.919 22.919 0 0 1 9.406-4.453c3.441.407 8.278 4.151 8.767 4.685 1.047 1.124 1.791 4.1 2.162 6.96z" class="cls-2" transform="translate(-58.82 -51.843)"/>
                    </g>
                    <g id="face-2" transform="translate(1.175 11.534)">
                        <path id="Path_23214" d="M66.612 69.625a2.652 2.652 0 0 0 2.047 1.432c.335-.02 1.933-.741 2.107-1.492a2.657 2.657 0 0 0-2.186-1.431c-1.125-.01-1.968 1.491-1.968 1.491z" class="cls-2" transform="translate(-57.838 -58.418)"/>
                        <g id="Group_8445" transform="translate(.116 3.306)">
                            <g id="Group_8439" transform="translate(1.092 .616)">
                                <g id="Group_8438">
                                    <path id="Path_23215" d="M60.92 66.2a5.25 5.25 0 0 0 2.3 1.188 7.84 7.84 0 0 0 2.654.217 6.022 6.022 0 0 0 1.589-.34 10.571 10.571 0 0 0 .128-1.906 6.193 6.193 0 0 0-.874-.73 4.567 4.567 0 0 0-2.416-.937 4.065 4.065 0 0 0-.856.077 4.047 4.047 0 0 0-2.4 1.387s-.426.761-.125 1.044z" class="cls-6" transform="translate(-60.812 -63.693)"/>
                                </g>
                            </g>
                            <g id="Group_8440" transform="translate(2.704 .616)">
                                <path id="Path_23216" d="M62.048 65.646a2.263 2.263 0 0 0 .792 1.744 7.84 7.84 0 0 0 2.654.217 2.264 2.264 0 0 0 .843-2.977 4.567 4.567 0 0 0-2.416-.937 4.065 4.065 0 0 0-.856.077 2.265 2.265 0 0 0-1.017 1.876z" class="cls-14" transform="translate(-62.048 -63.693)"/>
                            </g>
                            <g id="Group_8441" class="cls-7" transform="translate(2.704 .587)">
                                <path id="Path_23217" d="M62.048 65.53a4.6 4.6 0 0 1 4.541.042 2.694 2.694 0 0 0-.295-1.025 4.344 4.344 0 0 0-2.373-.877 4.149 4.149 0 0 0-.854.091 2.2 2.2 0 0 0-1.019 1.769z" class="cls-8" transform="translate(-62.048 -63.67)"/>
                            </g>
                            <g id="Group_8444">
                                <g id="Group_8443">
                                    <g id="Group_8442">
                                        <path id="Path_23218" d="M67.842 65.5v-.01a1.332 1.332 0 0 0-.5-.723c-1.044-.781-1.8-1.458-2.635-1.475-1.743-.034-3.522.428-3.8-.076-.051.393.515.714.623.866-.239.083-.728.08-1.546-.41 0 0 .63 1.478 1.324 1.628a21.678 21.678 0 0 1 3.236-1.351 7.624 7.624 0 0 1 3.298 1.551z" class="cls-3" transform="translate(-59.975 -63.22)"/>
                                    </g>
                                </g>
                            </g>
                        </g>
                        <g id="Group_8453" transform="translate(13.79 3.492)">
                            <g id="Group_8447" transform="translate(0 .549)">
                                <g id="Group_8446">
                                    <path id="Path_23219" d="M77.108 66.353A5.265 5.265 0 0 1 74.79 67.5a7.873 7.873 0 0 1-2.657.167 6.08 6.08 0 0 1-1.584-.372 10.788 10.788 0 0 1-.091-1.907 6.145 6.145 0 0 1 .888-.714 4.548 4.548 0 0 1 2.433-.891 4.04 4.04 0 0 1 .853.093A4.036 4.036 0 0 1 77 65.309s.414.766.108 1.044z" class="cls-6" transform="translate(-70.458 -63.783)"/>
                                </g>
                            </g>
                            <g id="Group_8448" transform="translate(.618 .549)">
                                <path id="Path_23220" d="M75.472 65.768a2.262 2.262 0 0 1-.826 1.731 7.873 7.873 0 0 1-2.657.167 2.266 2.266 0 0 1-.787-2.992 4.548 4.548 0 0 1 2.433-.891 4.04 4.04 0 0 1 .853.093 2.268 2.268 0 0 1 .984 1.892z" class="cls-14" transform="translate(-70.931 -63.783)"/>
                            </g>
                            <g id="Group_8449" class="cls-7" transform="translate(.619 .518)">
                                <path id="Path_23221" d="M75.473 65.654a4.6 4.6 0 0 0-4.541-.043 2.731 2.731 0 0 1 .313-1.021 4.367 4.367 0 0 1 2.39-.831 4.139 4.139 0 0 1 .853.108 2.2 2.2 0 0 1 .985 1.787z" class="cls-8" transform="translate(-70.932 -63.759)"/>
                            </g>
                            <g id="Group_8452" transform="translate(.002)">
                                <g id="Group_8451">
                                    <g id="Group_8450">
                                        <path id="Path_23222" d="M70.459 65.514v-.009a1.344 1.344 0 0 1 .515-.714c1.059-.762 1.83-1.424 2.664-1.424 1.741 0 3.513.493 3.8-.005.043.393-.528.7-.639.854.236.089.725.093 1.552-.381 0 0-.657 1.466-1.355 1.6a21.472 21.472 0 0 0-3.231-1.415 7.445 7.445 0 0 0-3.306 1.494z" class="cls-3" transform="translate(-70.459 -63.362)"/>
                                    </g>
                                </g>
                            </g>
                        </g>
                        <path id="Path_23223" d="M78.226 61.99a14.29 14.29 0 0 0-3.088-.29c-1.226.125-4.119.565-4.119.565-.676-.308-1-.887-.839-1.008.44-.339 5.584-.531 6.272-.385.375.08 1.869.984 1.774 1.118z" class="cls-3" transform="translate(-56.764 -60.643)"/>
                        <path id="Path_23224" d="M59.89 61.8a9.586 9.586 0 0 1 2.536-.254c1.224.149 4.665.664 4.665.664.681-.293 1.014-.867.858-.991-.434-.348-5.575-.637-6.264-.5-.378.073-1.885.948-1.795 1.081z" class="cls-3" transform="translate(-59.886 -60.685)"/>
                        <g id="Group_8454" transform="translate(5.835 14.55)">
                            <path id="Path_23225" d="M69.493 74.71a9.8 9.8 0 0 0 4.908-2.3 15.4 15.4 0 0 1-5.027.339c-1.037-.055-3.451.128-5.015-.46a9.306 9.306 0 0 0 5.134 2.421z" class="cls-6" transform="translate(-64.359 -71.702)"/>
                            <path id="Path_23226" fill="#c1307c" d="M74.4 72.552c-.762-.081-3.522-1.217-5.013-.445-1.786-.767-4.388.417-5.03.324a12.457 12.457 0 0 0 5.015.728 12.2 12.2 0 0 0 5.028-.607z" transform="translate(-64.359 -71.84)"/>
                            <path id="Path_23227" d="M69.38 75.541c1.143.014 3.8-1.987 5.022-3.127-1.671.52-3.818 1.409-5.022 1.409s-3.457-.942-5.021-1.53c1.714 1.634 4.07 3.238 5.021 3.248z" class="cls-16" transform="translate(-64.359 -71.702)"/>
                        </g>
                    </g>
                </g>
                <g id="Group_8456" transform="translate(2.014 27.047)">
                    <path id="Path_23228" d="M84.288 71.882C80.5 83.208 76.154 83.234 69.358 87.97c5.715-5.87 9.217-4.575 14.93-16.088z" class="cls-10" transform="translate(-47.989 -64.872)"/>
                    <path id="Path_23229" d="M62.339 90.48c-.2-10.3-7.995-13.135-9.363-23.972.209 11.592 8.138 17.641 9.363 23.972z" class="cls-10" transform="translate(-52.976 -66.508)"/>
                    <path id="Path_23230" d="M87.841 85.834c-3.344 6.277-12.563 15.418-33.43 0 21.223 13.169 29.794 4.1 33.43 0z" class="cls-10" transform="translate(-52.539 -60.625)"/>
                </g>
            </g>
            <g id="hand-3" transform="translate(3.615 147.796)">
                <path id="Path_23231" d="M51.329 180.269v.007c.588.6 1.743 1.662.961-.416a6.858 6.858 0 0 0-.642-1.419s1.816 2.261-.023-2.084c-.031-.074-.065-.137-.1-.2.5.6 1.478.976.553-.981-2.276-4.822-2.108-7.079-2.086-7.988s-.134-2 .138-1.559c.894 1.441 1.25 4.919 2.6 6.225s.942-.386.1-2.528-.772-4.561-.956-5.983c-.31-2.391-.31-2.391-1.621-3.887l-.257-.37-4.2 2.009c.209 4.171-.36 7.821.224 11.046.569 3.14 4.406 9.265 5.45 9.71.438.179.266-.524-.141-1.582z" class="cls-4" transform="translate(-45.751 -159.079)"/>
            </g>
        </g>
        <g id="man-2" transform="translate(96.099 30.075)">
            <path id="Path_23232" d="M106.17 43.394s8.852-12.9 16.709-13.311c7.7-.4 17.461 13.734 17.461 13.734s1.927 20.33 3.663 29.2c.987 5.039-.344 11.729 2.092 18.328 6.6 17.874-26.044 5.155-37.627 3.013-15.764-2.913-.294-22.274-4.85-29.573-2.182-3.502 2.552-21.391 2.552-21.391z" class="cls-13" transform="translate(-78.379 -30.075)"/>
            <g id="Group_8461" transform="translate(26.155 5.17)">
                <path id="Path_23233" d="M128.093 74.158c-1.351-1.719-.933-10.285-.721-11.073-.072 0-3.854.172-3.93.168a11.545 11.545 0 0 1-3.71.834 11.544 11.544 0 0 1-3.711-.834c-.074 0-4.19-.61-4.26-.608.179.787.685 9.839-.625 11.56-.346.455 5.092 1.311 8.6 1.291 3.531-.02 8.71-.89 8.357-1.338z" class="cls-2" transform="translate(-101.513 -25.33)"/>
                <g id="Group_8458" transform="translate(30.655 17.816)">
                    <path id="Path_23234" d="M131.469 47.829c-1.261-.524-3.463.514-4.213 2.919v6.4c.654.614 2.221-.127 3.411-2.264 1.071-1.925 1.938-1.75 2.223-3.206.486-2.478-.29-3.378-1.421-3.849z" class="cls-2" transform="translate(-127.256 -47.696)"/>
                </g>
                <g id="Group_8459" transform="translate(0 17.816)">
                    <path id="Path_23235" d="M105.323 47.829c1.261-.524 3.463.514 4.215 2.919v6.4c-.655.614-2.223-.127-3.412-2.264-1.071-1.925-1.938-1.75-2.223-3.206-.487-2.478.29-3.378 1.42-3.849z" class="cls-2" transform="translate(-103.755 -47.696)"/>
                </g>
                <path id="Path_23236" d="M136.042 42.924c-1.079-.934-9.7-8.184-13.8-8.839a2.646 2.646 0 0 0-.533-.047c-.05 0-.1 0-.147.005-.026 0 .005.078-.021.081s.027.081.027.081-.077-.081-.1-.081-.087-.081-.113-.081c-.048 0-.115-.005-.163-.005a2.744 2.744 0 0 0-.544.047c-4.1.655-12.72 7.9-13.8 8.839-3.751 2.8 1.434 13.1 1.434 13.1.308 2.58-.11 12.01 1.578 15.282 1.582 3.064 7.423 5.9 11.582 5.9 3.549 0 10.156-2.741 11.737-5.806 1.689-3.271 1.147-12.8 1.454-15.379.004.001 5.16-10.302 1.409-13.097z" class="cls-3" transform="translate(-103.227 -34.038)"/>
                <path id="Path_23237" d="M136.087 41.328c-.736-.635-8.1-2.064-14.536-2.047-6.44-.017-13.927 1.411-14.664 2.047-3.751 2.8 1.647 12.619 1.647 12.619a12.559 12.559 0 0 0 1.857 5.151c1.821 2.931 20.963 3.513 22.464.407a22.572 22.572 0 0 0 1.458-5.558s5.526-9.824 1.774-12.619z" class="cls-4" transform="translate(-103.205 -32.442)"/>
                <g id="Group_8460" transform="translate(1.575 2.167)">
                    <path id="Path_23238" d="M125.953 42.341a3.719 3.719 0 0 1 1.435 2.043c.091.244.175.5.254.775a17.449 17.449 0 0 1 .4 1.766 17.571 17.571 0 0 1-.039 7.307l.352.837s3.339-5.5 3.339-9.716c0-9.016-3.488-6.337-5.058-7.688l-.12-.106-.01.087z" class="cls-3" transform="translate(-98.573 -35.133)"/>
                    <path id="Path_23239" d="M110.965 43.03a3.48 3.48 0 0 0-1.531 1.92c-.091.244-.175.5-.254.775a17.449 17.449 0 0 0-.4 1.766 17.57 17.57 0 0 0 .039 7.307l-.352.837s-4.385-4.537-3.339-15.265c.53-5.421 6.665-4.611 6.706-4.648z" class="cls-3" transform="translate(-104.962 -35.699)"/>
                </g>
            </g>
            <g id="Group_8472" transform="translate(33.289 20.311)">
                <path id="Path_23240" d="M128.2 47.681c-.6-.173-7.641.457-8.391.518-.5.042-.89-2.517-.687-2.52a50.8 50.8 0 0 1 7.468.227c.368.126 1.851 1.845 1.61 1.775z" class="cls-3" transform="translate(-106.228 -45.639)"/>
                <path id="Path_23241" d="M109.25 47.73c.6-.18 7.645.386 8.4.442.5.037.869-2.527.665-2.527a50.659 50.659 0 0 0-7.466.295c-.373.13-1.84 1.86-1.599 1.79z" class="cls-3" transform="translate(-109.224 -45.646)"/>
                <g id="Group_8462" transform="translate(8.78 10.205)">
                    <path id="Path_23242" d="M118.386 53.469a4.15 4.15 0 0 0-2.431 1.623 3.6 3.6 0 0 0 2.431 1.812c.293-.008 2.2-.959 2.431-1.812a5.333 5.333 0 0 0-2.431-1.623z" class="cls-2" transform="translate(-115.955 -53.469)"/>
                </g>
                <path id="Path_23243" d="M123.708 58.437c-.85 1.393-2.716 3.1-4.65 3.1-2.09 0-5.568-3.7-5.722-4.244a15.879 15.879 0 0 0 10.372 1.144z" class="cls-5" transform="translate(-107.972 -42.099)"/>
                <g id="Group_8464" transform="translate(1.054 3.536)">
                    <path id="Path_23244" d="M110.147 50.991a5.454 5.454 0 0 0 2.392 1.21 8.154 8.154 0 0 0 2.755.2 6.2 6.2 0 0 0 1.644-.369 7.6 7.6 0 0 0 .113-1.68 3.794 3.794 0 0 0-.913-1.045 4.73 4.73 0 0 0-2.515-.948 4.17 4.17 0 0 0-.884.089 4.186 4.186 0 0 0-2.471 1.461s-.437.791-.121 1.082z" class="cls-3" transform="translate(-110.032 -48.357)"/>
                    <path id="Path_23245" d="M110.147 51.218a5.454 5.454 0 0 0 2.392 1.21 8.154 8.154 0 0 0 2.755.2 6.2 6.2 0 0 0 1.644-.369 11.052 11.052 0 0 0 .113-1.976 6.371 6.371 0 0 0-.913-.749 4.73 4.73 0 0 0-2.515-.948 4.169 4.169 0 0 0-.884.089 4.186 4.186 0 0 0-2.471 1.461s-.437.789-.121 1.082z" class="cls-6" transform="translate(-110.032 -48.288)"/>
                    <path id="Path_23246" d="M111.311 50.627a2.345 2.345 0 0 0 .839 1.8 8.154 8.154 0 0 0 2.755.2 2.348 2.348 0 0 0 .844-3.094 4.73 4.73 0 0 0-2.515-.948 4.169 4.169 0 0 0-.884.089 2.35 2.35 0 0 0-1.039 1.953z" class="cls-14" transform="translate(-109.642 -48.288)"/>
                    <g id="Group_8463" class="cls-7" transform="translate(1.669 .265)">
                        <path id="Path_23247" d="M111.311 50.507a4.769 4.769 0 0 1 4.709 0 2.825 2.825 0 0 0-.316-1.062 4.515 4.515 0 0 0-2.471-.886 4.181 4.181 0 0 0-.884.1 2.276 2.276 0 0 0-1.038 1.848z" class="cls-8" transform="translate(-111.311 -48.56)"/>
                    </g>
                </g>
                <g id="Group_8471" transform="translate(14.096 3.536)">
                    <g id="Group_8466">
                        <g id="Group_8465">
                            <path id="Path_23248" d="M126.934 50.991a5.454 5.454 0 0 1-2.392 1.21 8.149 8.149 0 0 1-2.754.2 6.2 6.2 0 0 1-1.645-.369 7.6 7.6 0 0 1-.113-1.68 3.338 3.338 0 0 1 .913-1.045 4.759 4.759 0 0 1 2.515-.948 4.191 4.191 0 0 1 .886.089 4.183 4.183 0 0 1 2.469 1.461s.437.791.121 1.082z" class="cls-3" transform="translate(-120.03 -48.357)"/>
                        </g>
                    </g>
                    <g id="Group_8468" transform="translate(0 .296)">
                        <g id="Group_8467">
                            <path id="Path_23249" d="M126.934 51.218a5.454 5.454 0 0 1-2.392 1.21 8.149 8.149 0 0 1-2.754.2 6.2 6.2 0 0 1-1.645-.369 11.054 11.054 0 0 1-.113-1.976 6.444 6.444 0 0 1 .913-.749 4.734 4.734 0 0 1 2.515-.948 4.19 4.19 0 0 1 .886.089 4.183 4.183 0 0 1 2.469 1.461s.437.789.121 1.082z" class="cls-6" transform="translate(-120.03 -48.584)"/>
                        </g>
                    </g>
                    <g id="Group_8469" transform="translate(.643 .296)">
                        <path id="Path_23250" d="M125.231 50.627a2.345 2.345 0 0 1-.839 1.8 8.149 8.149 0 0 1-2.754.2 2.351 2.351 0 0 1-.845-3.094 4.734 4.734 0 0 1 2.515-.948 4.19 4.19 0 0 1 .886.089 2.352 2.352 0 0 1 1.037 1.953z" class="cls-14" transform="translate(-120.523 -48.584)"/>
                    </g>
                    <g id="Group_8470" class="cls-7" transform="translate(.643 .265)">
                        <path id="Path_23251" d="M125.231 50.507a4.766 4.766 0 0 0-4.708 0 2.8 2.8 0 0 1 .316-1.062 4.511 4.511 0 0 1 2.469-.886 4.2 4.2 0 0 1 .886.1 2.277 2.277 0 0 1 1.037 1.848z" class="cls-8" transform="translate(-120.523 -48.56)"/>
                    </g>
                </g>
            </g>
            <path id="Path_23252" d="M166.261 127.129s-5.387-10.935-5.769-11.416c0 0-3.138-7.821-4.942-14.356-.37 1.778-2.669 7.388-3.5 22.326a14.726 14.726 0 0 0-.185 4.1c.592 2.76 12.071 192.483 7.945 192.287-5.078 5.61-55.462 9.037-63.952.26-9.909-14.7 5.846-189.328 6.669-195.2 1.175-8.382-1.233-16.525-2.727-23.63-2.422 11.59-3.707 16.3-3.707 16.3l-3.175 8.562s-3.868-41.5-1.088-44.282c.716-.716 4.114-1.4 8.982-2l-.445-1.827c1.4-.865 14.444-.828 28.381-.21 13.319-.557 25.44-.557 26.786.283a4.188 4.188 0 0 1 1.422 1.941c3.854.531 6.5 1.123 7.117 1.754 2.782 2.779 2.188 45.108 2.188 45.108z" class="cls-9" transform="translate(-81.534 -15.612)"/>
            <path id="Path_23253" d="M166.443 82.884c-2.85-3.613-29.976-10.729-30-10.736l.009.023-.027-.023a8.5 8.5 0 0 0-.763-2.9c-3.733 2.39-12.546 1.844-15.46.155a11.054 11.054 0 0 0-.719 2.793c-.029.009-24.588 7.765-27.7 11.153-9.369 10.194-9.869 49.911-5.148 55.934 2.739 3.493 8.017 2.447 8.017 2.447l10.568-13.515s-3.089-23.166-2.562-32.434c-.4 2.8 1.726 11.716 3.868 20.1 1.526 5.972 44.719 6.692 46.417-1.03 1.625-7.387 3.892-18.134 3.552-20.54-.5 7.915-.914 28.56-.914 28.56s9.179 18.8 14.454 17.515c5.347-2.366 7.612-43.293-3.592-57.502z" class="cls-6" transform="translate(-83.703 -18.151)"/>
            <path id="Path_23254" d="M149.624 114.42c-7.932-2.052-25.9-5.635-38.079-6.4l-1.35 6.806c-3.643.31-7.032.638-9.684.977.383 5.1-1.477 10.136-1.7 13.58 7.756-2.172 17.225-3.522 25.2-5.9a22.587 22.587 0 0 1 9.006.07c1.526.427 17.112 4.092 17.112 4.092-.105-6.077-.752-8.865-.505-13.225z" class="cls-13" transform="translate(-79.106 -6.349)"/>
            <g id="Group_8479" transform="translate(9.29 90.397)">
                <g id="Group_8475" transform="translate(0 12.431)">
                    <g id="Group_8474">
                        <g id="Group_8473">
                            <path id="Path_23255" d="M90.825 129.707c9.686.768 36.771-11.188 49.48-12.82l-3.333-7.98c-8.429.847-30.088 2.037-37.278 3.407z" class="cls-6" transform="translate(-90.825 -108.907)"/>
                        </g>
                    </g>
                </g>
                <g id="Group_8478" transform="translate(48.23)">
                    <g id="Group_8477">
                        <g id="Group_8476">
                            <path id="Path_23256" d="M127.806 111.177a16.112 16.112 0 0 0 1.881-2.111c1.231-1.812 3.157-5.06 5.345-6.4 2.8-1.7 4.409-2.139 8.6-3.106 3.838-.887 4.165 1.668 3.371 1.795 4.038-1.057 3.425 1.6 2.742 1.788 1.874-.271 2.418 1.957.254 3.076-.113.059 2.49.956-.274 2.889a54.065 54.065 0 0 1-5.165 2.7c-2.671 1.16-12.666 4.432-12.666 4.432s-4.277-4.851-4.088-5.063z" class="cls-4" transform="translate(-127.8 -99.377)"/>
                        </g>
                    </g>
                </g>
            </g>
            <g id="Group_8489" transform="translate(3.919 92.854)">
                <g id="Group_8482" transform="translate(7.641 6.839)">
                    <g id="Group_8481">
                        <g id="Group_8480">
                            <path id="Path_23257" d="M129.207 119.655c-7.894-3.2-25.536-7.318-36.642-6.911l13.144-6.242c12.937.8 31.976 2.014 39.031 3.98l6.6 8.5c-.088 2.707-13.932 3.996-22.133.673z" class="cls-9" transform="translate(-92.565 -106.503)"/>
                        </g>
                    </g>
                </g>
                <g id="Group_8485" transform="translate(23.173 4.294)">
                    <g id="Group_8484">
                        <g id="Group_8483">
                            <path id="Path_23258" d="M163.706 129.642c-11.4 4.993-46.7-14.513-59.233-17.182l1.573-7.909c12.934.807 37.594 2.545 43.371 6.758z" class="cls-6" transform="translate(-104.473 -104.552)"/>
                        </g>
                    </g>
                </g>
                <g id="Group_8488">
                    <g id="Group_8487">
                        <g id="Group_8486">
                            <path id="Path_23259" d="M111.454 105.554s-8.614-4.944-11.909-4.222c-3.2.7-4.522 1.567-8.579 2.991-3.716 1.306-3.089 3.082-2.313 2.87-3.307.907-1.569 3.548-.777 3.162-1.679.914-.831 3.243 1.7 2.58-.657.432-1.242 2.438 1.981 1.886.72.04 4.753-1.18 6.307-1.184 2.571-.007 11.455.573 12.017-.173 0-.001 1.844-7.829 1.573-7.91z" class="cls-4" transform="translate(-86.707 -101.26)"/>
                        </g>
                    </g>
                </g>
            </g>
            <path id="Path_23260" d="M111.333 71.68c3.257 1.437 8.442 1.518 8.442 1.518 2.373 7.061.987 22.224.018 36.488-1.57-14.372.124-27.536-1.524-35.515a14.464 14.464 0 0 1-6.936-2.491z" class="cls-13" transform="translate(-75.293 -17.41)"/>
            <path id="Path_23261" d="M122.679 31c12.321.292 17.461 13.733 17.461 13.733 10.237 11.338-1.314 11.974-7.058 5.981-5.048-5.267-17.075-4.6-22.685 1.625-5.926 6.574-13.271 2.731-4.488-7.8 0 .004 4.208-13.839 16.77-13.539z" class="cls-11" transform="translate(-78.179 -29.795)"/>
            <path id="Path_23262" d="M123.8 30.082c12.317.293 17.461 13.734 17.461 13.734 10.237 11.339 1.77 18.909 4.758 29.894.566 2.082 4.1 13.041 1.855 15.409L139 86.286c5.208-1.942 1.154-8 1.154-17.167 0-6.05-2.12-14.534-7.865-20.527-5.048-5.267-13.036-4.911-18.646 1.312-5.925 6.574-6.613 13.04-6.452 19.923.18 7.68-3.344 15.582.618 16.948.014.862-6.363 3.733-7.309 3.534-6.086-7.015 1.7-15.353 1.293-18.391-1.27-9.364-3.547-17.763 5.236-28.292.001 0 4.209-13.843 16.771-13.544z" class="cls-6" transform="translate(-79.3 -30.074)"/>
            <path id="Path_23263" d="M138.967 39.008c1-.192.754-2.292-1.14-2.478a126.584 126.584 0 0 0-31.834-.162c-1.761.614-2.031 2.041-.914 2.64a1.613 1.613 0 0 0 .134 2.984l-.473.58a292.612 292.612 0 0 1 35.146.111l-.441-.5c.806.162 1.819-2.678-.478-3.175z" class="cls-13" transform="translate(-77.483 -28.441)"/>
            <path id="Path_23264" fill="#070707" d="M138.967 39.008c1-.192.754-2.292-1.14-2.478a126.584 126.584 0 0 0-31.834-.162c-1.761.614-2.031 2.041-.914 2.64a1.613 1.613 0 0 0 .134 2.984 245.356 245.356 0 0 1 34.231.19c.807.163 1.82-2.677-.477-3.174z" transform="translate(-77.483 -28.441)"/>
            <path id="Path_23265" d="M143.247 137.18c0 36.31 8.6 149.67 6.831 153.936C146 300.964 97.027 303 97.314 294.57c.074-4.162 6.513-157.454 6.523-157.511 1.103-5.815 39.41-6.694 39.41.121z" class="cls-6" transform="translate(-79.56 1.066)"/>
        </g>
    </g>
</svg>
