<svg id="Layer_1" height="512" viewBox="0 0 64 64" width="512" xmlns="http://www.w3.org/2000/svg" data-name="Layer 1"><path d="m52.5 20.14a1 1 0 0 0 -1 0l-12.7 7.19a4.86 4.86 0 0 0 .2-1.33 5 5 0 1 0 -6.32 4.8l-11.17 6.33a1 1 0 0 0 -.51.87v4a1 1 0 0 0 1.51.86l8.32-5-.83 8.61-7.6 5.73a1 1 0 0 0 -.4.8v4a1 1 0 0 0 .55.89 1 1 0 0 0 .45.11 1 1 0 0 0 .59-.2l21-15.53-.59 3.57a1 1 0 0 0 .68 1.16l3 1a1 1 0 0 0 1.32-.86l1-7a4 4 0 0 0 -6.32-3.81l-3.43 2.5.7-6.25 11.55-6.72a1 1 0 0 0 .5-.86v-4a1 1 0 0 0 -.5-.86zm-21.5 5.86a3 3 0 1 1 3 3 3 3 0 0 1 -3-3zm20-1.57-11.5 6.71a1 1 0 0 0 -.49.75l-1 9a1 1 0 0 0 .49 1 1 1 0 0 0 1.09 0l5.26-3.89a2 2 0 0 1 3.15 1.88l-.83 5.79-1-.35.83-5.16a1 1 0 0 0 -.47-1 1 1 0 0 0 -1.11.05l-21.42 15.79v-1.5l7.6-5.7a1 1 0 0 0 .4-.71l1-11a1 1 0 0 0 -.47-.94 1 1 0 0 0 -1 0l-8.53 5.08v-1.65l28-15.86z"/><path d="m57.11 10.83-2.93-.45-1.32-2.8a1 1 0 0 0 -.86-.58 1 1 0 0 0 -.9.58l-1.32 2.8-2.93.45a1 1 0 0 0 -.79.67 1 1 0 0 0 .23 1l2.15 2.2-.51 3.12a1 1 0 0 0 .41 1 1 1 0 0 0 .57.18 1 1 0 0 0 .49-.12l2.6-1.45 2.61 1.45a1 1 0 0 0 1.47-1l-.51-3.12 2.15-2.2a1 1 0 0 0 -.56-1.69zm-3.37 2.85a1 1 0 0 0 -.27.86l.26 1.59-1.29-.71a1 1 0 0 0 -.49-.13.94.94 0 0 0 -.48.13l-1.29.71.26-1.59a1 1 0 0 0 -.27-.86l-1.17-1.17 1.53-.23a1 1 0 0 0 .75-.56l.72-1.37.64 1.37a1 1 0 0 0 .76.56l1.53.23z"/><path d="m51 2h2v3h-2z"/><path d="m56.28 5.7h3v2h-3z" transform="matrix(.723 -.691 .691 .723 11.4 41.8)"/><path d="m45.22 5.18h2v3h-2z" transform="matrix(.691 -.723 .723 .691 9.44 35.46)"/><path d="m31.71 51.5h11.48v2h-11.48z" transform="matrix(.793 -.609 .609 .793 -24.23 33.69)"/><path d="m28.74 57.23h2.52v2h-2.52z" transform="matrix(.793 -.609 .609 .793 -29.27 30.34)"/><path d="m15.66 58.83h5v2h-5z" transform="matrix(.8 -.6 .6 .8 -32.26 22.85)"/><path d="m7.59 51.67h16.83v2h-16.83z" transform="matrix(.832 -.555 .555 .832 -26.53 17.72)"/><path d="m4.8 58.33h2.4v2h-2.4z" transform="matrix(.832 -.555 .555 .832 -31.9 13.29)"/><path d="m6.14 46.04h10.79v2h-10.79z" transform="matrix(.826 -.563 .563 .826 -24.5 14.68)"/></svg>