<?xml version="1.0" encoding="iso-8859-1"?>
<!-- Generator: Adobe Illustrator 19.0.0, SVG Export Plug-In . SVG Version: 6.00 Build 0)  -->
<svg version="1.1" id="Capa_1" xmlns="http://www.w3.org/2000/svg" xmlns:xlink="http://www.w3.org/1999/xlink" x="0px" y="0px"
	 viewBox="0 0 512 512" style="enable-background:new 0 0 512 512;" xml:space="preserve">
<path style="fill:#D3A584;" d="M477.849,456.123v46.822c0,4.996-4.059,9.055-9.055,9.055H43.206c-4.996,0-9.055-4.059-9.055-9.055
	v-46.822H477.849z"/>
<rect x="34.15" y="456.12" style="fill:#B28769;" width="443.7" height="41.29"/>
<path style="fill:#D3A584;" d="M443.936,9.055v458.348H68.064V9.055C68.064,4.059,72.123,0,77.119,0H434.88
	C439.877,0,443.936,4.059,443.936,9.055z"/>
<rect x="68.06" y="414.75" style="fill:#B28769;" width="375.87" height="52.653"/>
<rect x="101.41" y="34.655" style="fill:#95B6BA;" width="309.18" height="401.48"/>
<rect x="114.8" y="48.05" style="fill:#B4D1D6;" width="282.39" height="374.7"/>
<g>
	<rect x="101.41" y="414.75" style="fill:#95B6BA;" width="309.18" height="21.387"/>
	<rect x="101.41" y="203.82" style="fill:#95B6BA;" width="309.18" height="61.45"/>
</g>
<g>
	<polygon style="fill:#DFEBEF;" points="410.592,191.865 410.592,247.441 197.82,34.657 253.385,34.657 	"/>
	<polygon style="fill:#DFEBEF;" points="410.592,294.47 410.592,350.035 101.408,40.861 101.408,34.657 150.791,34.657 	"/>
	<polygon style="fill:#DFEBEF;" points="403.879,436.133 253.215,436.133 101.408,284.326 101.408,133.662 	"/>
</g>
<g>
	<rect x="101.41" y="217.21" style="fill:#E5C2AA;" width="309.19" height="34.666"/>
	<path style="fill:#E5C2AA;" d="M483.41,484.019H28.59c-5.002,0-9.057-4.055-9.057-9.057v-37.76c0-5.002,4.055-9.057,9.057-9.057
		h454.82c5.002,0,9.057,4.055,9.057,9.057v37.76C492.467,479.964,488.412,484.019,483.41,484.019z"/>
</g>
<g>
</g>
<g>
</g>
<g>
</g>
<g>
</g>
<g>
</g>
<g>
</g>
<g>
</g>
<g>
</g>
<g>
</g>
<g>
</g>
<g>
</g>
<g>
</g>
<g>
</g>
<g>
</g>
<g>
</g>
</svg>
