<svg height="512" viewBox="0 0 64 64" width="512" xmlns="http://www.w3.org/2000/svg"><g id="Arched_window" data-name="Arched window"><path d="m32 1a24 24 0 0 1 24 24v38a0 0 0 0 1 0 0h-48a0 0 0 0 1 0 0v-38a24 24 0 0 1 24-24z" fill="#9d5d41"/><path d="m53 25v35h-42v-35a21 21 0 0 1 21-21h.13a21.053 21.053 0 0 1 2.65.19 20.711 20.711 0 0 1 9.44 3.73 17.207 17.207 0 0 1 1.57 1.25c.37.31.72.64 1.06.98a20.934 20.934 0 0 1 6.15 14.85z" fill="#edeeed"/><g fill="#fff"><path d="m53 42.14v2.82l-15.03 15.04h-2.84z"/><path d="m34.78 4.19-23.78 23.78v-2.84l21.13-21.13a21.053 21.053 0 0 1 2.65.19z"/><path d="m45.79 9.17-34.79 34.8v-2.84l33.22-33.21a17.207 17.207 0 0 1 1.57 1.25z"/><path d="m53 26.62v4.24l-29.13 29.14h-4.25z"/></g><path d="m32.614 4.019c-.162 0-.321-.017-.484-.019h-.13a21 21 0 0 0 -21 21v35h1v-35a20.987 20.987 0 0 1 20.614-20.981z" fill="#894e3a"/><path d="m30 3v27h-19v4h19v26h4v-26h19v-4h-19v-27z" fill="#9d5d41"/><path d="m52 58a38 38 0 0 1 -38-38 23.9 23.9 0 0 1 5.854-15.7 23.984 23.984 0 0 0 -11.854 20.7v38h48v-5z" opacity=".1"/></g></svg>