<svg id="Capa_1" enable-background="new 0 0 497 497" height="512" viewBox="0 0 497 497" width="512" xmlns="http://www.w3.org/2000/svg"><g><path d="m29.661 241.565v245.194c0 5.656 4.585 10.241 10.241 10.241h417.196c5.656 0 10.241-4.585 10.241-10.241v-245.194l-218.839-34.065z" fill="#d8ab83"/><path d="m437.339 231.823v254.936c0 5.656-4.585 10.241-10.241 10.241h30c5.656 0 10.241-4.585 10.241-10.241v-245.194z" fill="#c9976b"/><path d="m467.339 241.565v-231.324c0-5.656-4.585-10.241-10.241-10.241h-417.196c-5.656 0-10.241 4.585-10.241 10.241v231.324h36l177.839 10 187.839-10z" fill="#f7e8cb"/><path d="m457.098 0h-30c5.656 0 10.241 4.585 10.241 10.241v231.324h30v-231.324c0-5.656-4.585-10.241-10.241-10.241z" fill="#f7dfaf"/><path d="m65.661 241.565v186.397c0 3.161 2.562 5.723 5.723 5.723h149.023l23.093-10 23.093 10h159.023c3.161 0 5.723-2.562 5.723-5.723v-186.397h-164.746l-20.32 10-25.866-10z" fill="#faf9fa"/><path d="m401.339 241.565v186.397c0 3.161-2.562 5.723-5.723 5.723h30c3.161 0 5.723-2.562 5.723-5.723v-186.397z" fill="#e7e7e7"/><path d="m220.407 241.565h46.186v192.12h-46.186z" fill="#c9976b"/><g fill="#f7d592"><path d="m29.661 94.6h437.678v15h-437.678z"/><path d="m29.661 141.866h437.678v15h-437.678z"/><path d="m29.661 47.333h437.678v15h-437.678z"/><path d="m29.661 189.132h437.678v15h-437.678z"/></g><g fill="#e6bb71"><path d="m396.501 0h15v241.565h-15z"/><path d="m85.499 0h15v241.565h-15z"/></g></g></svg>