<?xml version="1.0" encoding="UTF-8"?>
<!DOCTYPE svg PUBLIC "-//W3C//DTD SVG 1.1//EN" "http://www.w3.org/Graphics/SVG/1.1/DTD/svg11.dtd">
<!-- Creator: CorelDRAW 2017 -->
<svg xmlns="http://www.w3.org/2000/svg" xml:space="preserve" width="30.413mm" height="9.2043mm" version="1.1" style="shape-rendering:geometricPrecision; text-rendering:geometricPrecision; image-rendering:optimizeQuality; fill-rule:evenodd; clip-rule:evenodd"
viewBox="0 0 1526 461.84"
 xmlns:xlink="http://www.w3.org/1999/xlink">
 <defs>
  <style type="text/css">
   <![CDATA[
    .str0 {stroke:#E6E7E8;stroke-width:3.82;stroke-miterlimit:22.9256}
    .fil0 {fill:none}
    .fil1 {fill:#2D5D73}
    .fil3 {fill:#CC4E18}
    .fil2 {fill:#E67E22}
    .fil4 {fill:#2D5D73;fill-rule:nonzero}
   ]]>
  </style>
    <mask id="id0">
  <linearGradient id="id1" gradientUnits="userSpaceOnUse" x1="1374.7" y1="93.95" x2="1330.51" y2="149.15">
   <stop offset="0" style="stop-opacity:1; stop-color:white"/>
   <stop offset="1" style="stop-opacity:0; stop-color:white"/>
  </linearGradient>
     <rect style="fill:url(#id1)" x="1169.11" y="66.17" width="248.18" height="208.97"/>
    </mask>
 </defs>
 <g id="Layer_x0020_1">
  <metadata id="CorelCorpID_0Corel-Layer"/>
  <g id="_2188472891296">
   <path class="fil1" d="M1232.39 81.07c47.73,-18.11 103.83,-13.82 142.77,15.22 18.94,14.13 37.76,33.05 42,60.16 5.61,28.31 -5.68,42.38 -18.82,55.02 -6.74,6.48 -12.55,10.85 -19.26,18.17 -8.95,9.76 -15.66,6.2 -10.26,21.79 6.66,19.21 21.66,66.81 26.11,87.62 2.39,11.19 -1.25,20.03 -12.64,23.21 -3.31,-2.28 -4.68,-5.34 -7.41,-9.7 -2.4,-3.82 -4.66,-7.04 -7.11,-10.92 -4.95,-7.83 -9.08,-14.55 -14.03,-22.12 -4.61,-7.05 -24.13,-40.68 -28.44,-43.79 -1.65,1.2 -16.03,15.73 -17.72,17.92 -5.13,6.64 -10.61,13.3 -15.46,21.98 -9.03,16.15 -13.97,31.84 -15.35,47.06 -2.06,30.27 29.43,51.51 47.4,28.76 -15.96,9.69 -35.11,-3.89 -31.86,-21.55 2.93,-15.85 26.02,-25.01 40.13,-15.64 13.67,9.07 12.61,28.29 21.41,42.6 14.26,23.2 36.43,19.46 43.8,11.77l0.01 0.09c13.84,-14.61 26.42,-29.9 40.05,-49.44 27.48,-39.43 56.28,-102.25 50.92,-165.5 -5.49,-64.76 -45.65,-108.38 -88.46,-129.84 -25.84,-12.96 -56.9,-19.37 -90.03,-15.49 -15.06,1.76 -30.41,5.94 -42.88,11.29 -6.55,2.81 -11.8,5.47 -18.07,9.02 -5.05,2.86 -13.55,7.73 -16.79,12.32z"/>
   <path class="fil2" d="M1200.75 111.99c-7.07,9.45 -13.32,19.76 -18.46,31.88 -11.48,27.05 -15.24,53.9 -11.87,86.4 3.46,33.3 18.5,46.21 54.16,44.6 25.89,-1.16 60.04,-13.24 73.48,-26.55 -5.18,-6.41 -80.89,-49.4 -86.5,-56.77 5.77,-23.84 34.34,-9.8 57.79,-3.21 13.93,3.92 53.21,18.52 64.2,19.1l29.95 -33.4c9.24,-9.36 18.83,-17.48 36.44,-18.65l0.27 -0.02c5.59,-0.32 11.24,-0.03 16.96,1.07 -8.37,-53.5 -72.61,-89.91 -126.51,-90.13 -39.48,-0.72 -67.88,14.6 -89.91,45.67z"/>
   <path class="fil3" style="mask:url(#id0)" d="M1200.75 111.99c-7.07,9.45 -13.32,19.76 -18.46,31.88 -11.48,27.05 -15.24,53.9 -11.87,86.4 3.46,33.3 18.5,46.21 54.16,44.6 25.89,-1.16 60.04,-13.24 73.48,-26.55 -5.18,-6.41 -80.89,-49.4 -86.5,-56.77 5.77,-23.84 34.34,-9.8 57.79,-3.21 13.93,3.92 53.21,18.52 64.2,19.1l29.95 -33.4c9.24,-9.36 18.83,-17.48 36.44,-18.65l0.27 -0.02c5.59,-0.32 11.24,-0.03 16.96,1.07 -8.37,-53.5 -72.61,-89.91 -126.51,-90.13 -39.48,-0.72 -67.88,14.6 -89.91,45.67z"/>
  </g>
  <path class="fil4" d="M112.69 349.08c-13.22,0 -24.83,-1.84 -34.83,-5.51 -10.01,-3.67 -17.76,-8.53 -23.27,-14.59 -5.5,-6.06 -9.63,-12.53 -12.39,-19.41 -2.75,-6.88 -4.13,-14 -4.13,-21.34l0 -57.82 38.55 -14.04 0 70.21c0,14.68 12.02,22.03 36.07,22.03 24.04,0 36.07,-7.35 36.07,-22.03l0 -94.71 38.55 -14.04 0 81.5c0.37,2.39 1.37,4.36 3.03,5.92 1.65,1.56 3.67,2.34 6.06,2.34l3.03 0c2.57,0 4.73,-0.91 6.47,-2.75 1.74,-1.84 2.61,-4.04 2.61,-6.61l0 -66.35 38.55 -14.04 0 80.4c0,2.57 0.87,4.77 2.62,6.61 1.74,1.84 3.9,2.75 6.47,2.75l3.3 0c2.57,0 4.73,-0.91 6.47,-2.75 1.75,-1.84 2.61,-4.04 2.61,-6.61l0 -66.35 38.55 -14.04 0 82.88c0.37,2.02 1.42,3.67 3.17,4.95 1.75,1.28 3.63,1.93 5.64,1.93l8.26 0 0 38.55 -10.19 0c-9.18,0 -17.99,-3.12 -26.43,-9.36 -8.63,6.24 -18.08,9.36 -28.35,9.36l-2.75 0c-10.28,0 -19.64,-3.03 -28.08,-9.09 -8.44,6.06 -17.71,9.09 -27.81,9.09 -5.88,0 -11.11,-0.46 -15.7,-1.38 -3.67,12.85 -11.47,23.45 -23.4,31.8 -11.93,8.35 -28.17,12.53 -48.73,12.53zm256.33 17.35l-23.95 -21.48 23.95 -21.75 23.95 21.75 -23.95 21.48zm19.27 -188.6l0 80.67c0,2.57 0.92,4.73 2.75,6.47 1.84,1.75 4.03,2.61 6.61,2.61l19.82 0 0 38.55 -19.82 0c-10.65,0 -20.19,-3.22 -28.64,-9.64 -8.44,6.42 -17.9,9.64 -28.36,9.64l-18.44 0 0 -38.55 18.44 0c2.38,0 4.5,-0.91 6.33,-2.75 1.84,-1.84 2.75,-3.95 2.75,-6.33l0 -66.63 38.55 -14.04zm106 0l0 83.42c0,29.92 -15.6,44.88 -46.8,44.88l-31.67 0 0 -38.55 29.46 0c3.67,0 6.33,-0.6 7.98,-1.79 1.65,-1.19 2.48,-3.72 2.48,-7.57l0 -66.35 38.55 -14.04zm-54.52 188.88l-23.95 -21.75 23.95 -21.48 17.9 15.97 18.17 -15.97 23.95 21.48 -23.95 21.75 -18.17 -16.52 -17.9 16.52zm90.31 -66.9l0 -107.93 37.72 -14.04 0 89.75 23.68 0 0 38.55 -23.68 0 0 6.33c0,2.94 -0.46,6.38 -1.38,10.32 -0.92,3.95 -2.52,8.59 -4.82,13.9 -2.29,5.32 -5.92,10.69 -10.87,16.11 -4.96,5.41 -10.92,10.14 -17.9,14.18l-30.56 -22.03c18.54,-6.06 27.81,-21.11 27.81,-45.15zm125 -121.97l0 83.42c0,29.92 -15.6,44.88 -46.8,44.88l-18.44 0 0 -38.55 16.24 0c3.67,0 6.33,-0.6 7.98,-1.79 1.65,-1.19 2.48,-3.72 2.48,-7.57l0 -66.35 38.55 -14.04zm-37.17 -15.14l-23.95 -21.48 23.95 -21.75 17.89 16.52 18.17 -16.52 23.95 21.75 -23.95 21.48 -18.17 -15.97 -17.89 15.97zm197.68 -16.25l38 -13.49 0 125.55c0,2.57 0.91,4.73 2.75,6.47 1.84,1.75 4.04,2.61 6.61,2.61l14.59 0 0 38.55 -14.59 0c-9.36,0 -17.99,-2.48 -25.88,-7.44 -7.53,4.96 -17.71,7.44 -30.56,7.44l-68.83 0 -2.2 0 -7.98 0 0 -38.55 9.36 0c6.06,0 11.1,-1.74 15.14,-5.23 4.03,-3.49 6.06,-8.63 6.06,-15.42 0,-6.06 -1.38,-12.48 -4.13,-19.27l-25.06 -61.95 35.24 -12.39 24.23 59.75c4.59,11.38 6.88,22.66 6.88,33.86 0,6.97 -0.92,13.86 -2.75,20.65l12.66 0c3.49,0 6.1,-0.64 7.85,-1.93 1.74,-1.28 2.61,-3.85 2.61,-7.71l0 -111.51zm136.56 38.27l11.01 -32.49c5.88,0.55 12.25,1.7 19.13,3.44 6.88,1.74 14.46,4.13 22.71,7.16 8.26,3.03 16.16,7.02 23.68,11.98 7.53,4.96 14.36,10.56 20.51,16.8 6.15,6.24 11.01,13.76 14.59,22.57 3.58,8.81 5.28,18.26 5.09,28.36 -0.37,12.11 -2.34,22.53 -5.92,31.25 -3.58,8.72 -8.21,15.33 -13.9,19.82 -5.69,4.5 -11.52,7.71 -17.48,9.63 -5.97,1.93 -12.25,2.9 -18.86,2.9l-23.13 0c-15.42,0 -29.28,-2.39 -41.58,-7.16 -17.81,4.77 -41.94,7.16 -72.41,7.16l0 -38.55c15.6,0 26.8,-0.09 33.59,-0.28 -5.88,-9.72 -8.81,-20.37 -8.81,-31.94 0,-9.18 1.7,-17.21 5.09,-24.09 3.4,-6.88 7.76,-12.16 13.08,-15.83 5.32,-3.67 10.69,-6.38 16.11,-8.12 5.41,-1.74 10.78,-2.61 16.11,-2.61l1.37 0zm49.01 50.66c0,12.66 -2.48,23.41 -7.43,32.21l0.28 0 13.22 0 1.93 0c1.28,0.19 2.25,0.23 2.89,0.14 0.64,-0.09 1.7,-0.23 3.17,-0.42 1.47,-0.18 2.66,-0.55 3.58,-1.1 0.92,-0.55 2.07,-1.24 3.44,-2.06 1.37,-0.83 2.48,-1.98 3.3,-3.44 0.83,-1.47 1.66,-3.17 2.48,-5.1 0.83,-1.93 1.38,-4.26 1.66,-7.02 0.28,-2.75 0.41,-5.87 0.41,-9.36 -0.37,-8.81 -4.68,-17.39 -12.94,-25.74 -8.26,-8.35 -19.64,-14.18 -34.14,-17.49 12.11,9 18.17,22.12 18.17,39.37zm-36.07 0.28c0,-3.12 -1.19,-5.74 -3.58,-7.85 -2.39,-2.11 -5.79,-3.17 -10.19,-3.17 -4.59,0 -8.21,1.06 -10.87,3.17 -2.66,2.11 -3.99,4.73 -3.99,7.85 0,11.75 4.5,19.91 13.49,24.51 10.1,-4.96 15.14,-13.13 15.14,-24.51z"/>
 </g>
</svg>
