<?xml version="1.0" encoding="UTF-8"?>
<!DOCTYPE svg PUBLIC "-//W3C//DTD SVG 1.1//EN" "http://www.w3.org/Graphics/SVG/1.1/DTD/svg11.dtd">
<!-- Creator: CorelDRAW 2020 (64-Bit) -->
<svg xmlns="http://www.w3.org/2000/svg" xml:space="preserve" width="2.27338in" height="1.12698in" version="1.1" style="shape-rendering:geometricPrecision; text-rendering:geometricPrecision; image-rendering:optimizeQuality; fill-rule:evenodd; clip-rule:evenodd"
viewBox="0 0 1646.05 815.99"
 xmlns:xlink="http://www.w3.org/1999/xlink"
 xmlns:xodm="http://www.corel.com/coreldraw/odm/2003">
 <defs>
  <style type="text/css">
   <![CDATA[
    .fil0 {fill:#FEFEFE}
    .fil1 {fill:#34AA76;fill-rule:nonzero}
    .fil2 {fill:#42A5F6;fill-rule:nonzero}
   ]]>
  </style>
    <clipPath id="id0">
     <path d="M-0 0l700.31 0 0 815.99 -700.31 0 0 -815.99z"/>
    </clipPath>
 </defs>
 <g id="Layer_x0020_1">
  <metadata id="CorelCorpID_0Corel-Layer"/>
  <g id="_2710233800848">
   <g style="clip-path:url(#id0)">
    <image x="-0" y="0" width="700.31" height="815.99" xlink:href="1_Images\1_ImgID1.png"/>
   </g>
  </g>
  <rect class="fil0" x="80.8" y="80.8" width="538.71" height="654.39" rx="74.63" ry="91.04"/>
  <polygon class="fil1" points="390.42,263.92 253.36,263.92 253.36,339.56 186.72,339.56 186.72,201.78 445.43,201.78 "/>
  <polygon class="fil2" points="214.93,614.21 176.66,614.21 176.66,552.08 422.59,270.18 483.15,201.78 523.65,201.78 523.65,263.92 "/>
  <polygon class="fil1" points="511.99,614.21 252.65,614.21 307.67,552.08 445.35,552.08 445.35,463.83 511.99,463.83 "/>
  <path class="fil2" d="M1628.83 573.41l17.22 16.78c-9.32,12.12 -20.57,21.38 -33.69,27.72 -13.11,6.4 -27.6,9.57 -43.51,9.57 -25.86,0 -46.43,-8.08 -61.72,-24.3 -15.29,-16.16 -22.94,-37.79 -22.94,-64.82 0,-27.16 7.4,-49.1 22.25,-65.7 14.85,-16.59 34.43,-24.92 58.67,-24.92 11.06,0 20.82,1.68 29.27,5.09 8.51,3.36 16.16,8.64 22.93,15.73l0 -16.35 24.98 0 0 58.92 -22.81 0c-4.84,-12.24 -11.56,-21.45 -20.2,-27.65 -8.64,-6.15 -18.95,-9.26 -30.95,-9.26 -15.41,0 -27.84,5.84 -37.23,17.59 -9.39,11.69 -14.11,27.22 -14.11,46.55 0,19.52 5.04,34.81 15.11,45.81 10.07,11 24.17,16.47 42.26,16.47 10.44,0 20.2,-2.23 29.21,-6.77 9.07,-4.48 17.47,-11.31 25.23,-20.45z"/>
  <polygon class="fil2" points="1440.64,597.28 1470.48,597.28 1470.48,623.01 1379.49,623.01 1379.49,597.28 1408.94,597.28 1408.94,477.95 1379.49,477.95 1379.49,452.22 1440.64,452.22 "/>
  <polygon class="fil2" points="1394.78,409.71 1394.78,375.4 1440.64,375.4 1440.64,409.71 "/>
  <path class="fil2" d="M1122.55 476.46c12.12,-11.75 22.38,-19.46 30.7,-23.19 8.27,-3.66 17.59,-5.53 27.9,-5.53 12.12,0 22.07,2.61 29.71,7.89 7.64,5.29 12.74,13.11 15.29,23.43 10.32,-11.06 20.14,-19.02 29.46,-23.93 9.39,-4.91 19.33,-7.4 29.89,-7.4 18.52,0 32.07,4.85 40.59,14.55 8.51,9.69 12.74,25.23 12.74,46.61l0 88.38 26.47 0 0 25.73 -83.9 0 0 -25.73 25.73 0 0 -76.75c0,-17.59 -2.11,-29.34 -6.4,-35.24 -4.22,-5.9 -11.43,-8.82 -21.62,-8.82 -9.57,0 -18.59,2.67 -27.04,8.01 -8.45,5.35 -15.53,12.99 -21.38,22.93l0 89.87 26.48 0 0 25.73 -84.65 0 0 -25.73 26.48 0 0 -76.75c0,-17.34 -1.99,-29.03 -6.03,-35.05 -3.98,-6.03 -10.75,-9.01 -20.38,-9.01 -8.57,0 -16.91,2.36 -24.98,7.08 -8.08,4.73 -16.41,12.25 -25.05,22.44l0 91.3 25.73 0 0 25.73 -83.9 0 0 -25.73 26.47 0 0 -119.33 -26.47 0 0 -25.73 58.17 0 0 24.24z"/>
  <path class="fil1" d="M854.06 537.24c0,-25.48 8.95,-46.74 26.79,-63.83 17.83,-17.1 40.08,-25.67 66.81,-25.67 26.85,0 49.16,8.57 66.93,25.67 17.78,17.09 26.66,38.35 26.66,63.83 0,25.48 -8.89,46.8 -26.66,64.02 -17.77,17.21 -40.08,25.85 -66.93,25.85 -26.73,0 -48.98,-8.64 -66.81,-25.85 -17.84,-17.22 -26.79,-38.54 -26.79,-64.02zm33.19 0c0,18.09 5.78,33.13 17.34,45.06 11.5,11.99 25.86,17.96 43.01,17.96 17.34,0 31.76,-5.91 43.26,-17.78 11.49,-11.81 17.21,-26.91 17.21,-45.24 0,-18.33 -5.72,-33.44 -17.21,-45.25 -11.5,-11.87 -25.92,-17.77 -43.26,-17.77 -17.15,0 -31.51,5.97 -43.01,17.96 -11.56,11.94 -17.34,26.98 -17.34,45.06z"/>
  <path class="fil1" d="M645.23 537.24c0,-25.48 8.95,-46.74 26.79,-63.83 17.83,-17.1 40.08,-25.67 66.81,-25.67 26.85,0 49.16,8.57 66.93,25.67 17.78,17.09 26.66,38.35 26.66,63.83 0,25.48 -8.89,46.8 -26.66,64.02 -17.77,17.21 -40.08,25.85 -66.93,25.85 -26.73,0 -48.98,-8.64 -66.81,-25.85 -17.84,-17.22 -26.79,-38.54 -26.79,-64.02zm33.19 0c0,18.09 5.78,33.13 17.34,45.06 11.5,11.99 25.86,17.96 43.01,17.96 17.34,0 31.76,-5.91 43.26,-17.78 11.5,-11.81 17.21,-26.91 17.21,-45.24 0,-18.33 -5.72,-33.44 -17.21,-45.25 -11.5,-11.87 -25.92,-17.77 -43.26,-17.77 -17.15,0 -31.51,5.97 -43.01,17.96 -11.56,11.94 -17.34,26.98 -17.34,45.06z"/>
 </g>
</svg>
