<svg height="512" viewBox="0 0 58 58" width="512" xmlns="http://www.w3.org/2000/svg"><g id="Page-1" fill="none" fill-rule="evenodd"><g id="009---Copywriting" fill-rule="nonzero"><path id="Shape" d="m46 3v40h-46v-40c0-1.65685425 1.34314575-3 3-3h40c1.6568542 0 3 1.34314575 3 3z" fill="#f9eab0"/><path id="Shape" d="m46 26v16h-7.79l-14.79-14.78 9.18-11.47c.3561185-.4449012.8851159-.7167573 1.4541712-.7473106.5690553-.0305534 1.1241203.1830981 1.5258288.5873106z" fill="#e57e25"/><path id="Shape" d="m46 46.79v8.21c0 1.6568542-1.3431458 3-3 3h-40c-1.65685425 0-3-1.3431458-3-3v-13h46z" fill="#3b97d3"/><path id="Shape" d="m38.21 42h-37.81l15.41-19.25c.3538677-.4449796.881318-.7171608 1.4490272-.7477444.5677093-.0305837 1.1213479.183357 1.5209728.5877444l4.64 4.63z" fill="#f29c1f"/><g fill="#fff"><circle id="Oval" cx="10" cy="10" r="5"/><path id="Shape" d="m15 47h-10c-.55228475 0-1-.4477153-1-1s.44771525-1 1-1h10c.5522847 0 1 .4477153 1 1s-.4477153 1-1 1z"/><path id="Shape" d="m37.78 47h-18.78c-.5522847 0-1-.4477153-1-1s.4477153-1 1-1h18.78c.5522847 0 1 .4477153 1 1s-.4477153 1-1 1z"/><path id="Shape" d="m24 51h-19c-.55228475 0-1-.4477153-1-1s.44771525-1 1-1h19c.5522847 0 1 .4477153 1 1s-.4477153 1-1 1z"/><path id="Shape" d="m22 55h-17c-.55228475 0-1-.4477153-1-1s.44771525-1 1-1h17c.5522847 0 1 .4477153 1 1s-.4477153 1-1 1z"/><path id="Shape" d="m38.02 51h-10.02c-.5522847 0-1-.4477153-1-1s.4477153-1 1-1h10.02c.5522847 0 1 .4477153 1 1s-.4477153 1-1 1z"/></g><path id="Shape" d="m44.5 49.227c-.0736104.0492516-.1546376.0863891-.24.11l-5.97 1.62c-.352542.0968099-.7299187-.0030551-.9884318-.2615682s-.3583781-.6358898-.2615682-.9884318l1.62-5.969c.0236433-.0853506.0607785-.1663728.11-.24z" fill="#fdd7ad"/><path id="Shape" d="m57.39 33.487-2.88-2.88c-.3803675-.3886033-.9012243-.6076242-1.445-.6076242s-1.0646325.2190209-1.445.6076242c-13.908 13.842-12.768 12.76-12.85 12.893l5.73 5.73c.187-.117-.746.836 12.89-12.849.3895973-.3806479.6092391-.9023176.6092391-1.447s-.2196418-1.0663521-.6092391-1.447z" fill="#f3d55b"/><path id="Shape" d="m57.39 36.378-2.16 2.17-5.78-5.781 2.17-2.16c.38064-.3880975.9013949-.6067664 1.445-.6067664s1.06436.2186689 1.445.6067664l2.88 2.881c.3886033.3803675.6076242.9012243.6076242 1.445s-.2190209 1.0646325-.6076242 1.445z" fill="#ff5364"/></g></g></svg>