<?xml version="1.0" encoding="UTF-8"?>
<!DOCTYPE svg PUBLIC "-//W3C//DTD SVG 1.1//EN" "http://www.w3.org/Graphics/SVG/1.1/DTD/svg11.dtd">
<!-- Creator: CorelDRAW 2020 (64-Bit) -->
<svg xmlns="http://www.w3.org/2000/svg" xml:space="preserve" width="1.20206in" height="0.851016in" version="1.1" style="shape-rendering:geometricPrecision; text-rendering:geometricPrecision; image-rendering:optimizeQuality; fill-rule:evenodd; clip-rule:evenodd"
viewBox="0 0 219.33 155.28"
 xmlns:xlink="http://www.w3.org/1999/xlink"
 xmlns:xodm="http://www.corel.com/coreldraw/odm/2003">
 <defs>
  <style type="text/css">
   <![CDATA[
    .fil0 {fill:#FEFEFE}
    .fil1 {fill:#34AA76;fill-rule:nonzero}
    .fil2 {fill:#42A5F6;fill-rule:nonzero}
   ]]>
  </style>
     <clipPath id="id0">
      <path d="M60.6 0l98.12 0 0 114.33 -98.12 0 0 -114.33z"/>
     </clipPath>
 </defs>
 <g id="Layer_x0020_1">
  <metadata id="CorelCorpID_0Corel-Layer"/>
  <g id="_2746560345744">
   <g>
    <g style="clip-path:url(#id0)">
     <image x="60.6" y="0" width="98.12" height="114.33" xlink:href="03_Images\03_ImgID1.png"/>
    </g>
   </g>
   <rect class="fil0" x="71.92" y="11.32" width="75.48" height="91.68" rx="10.46" ry="12.76"/>
   <polygon class="fil1" points="115.3,36.98 96.1,36.98 96.1,47.57 86.76,47.57 86.76,28.27 123.01,28.27 "/>
   <polygon class="fil2" points="90.72,86.06 85.36,86.06 85.36,77.35 119.81,37.85 128.3,28.27 133.97,28.27 133.97,36.98 "/>
   <polygon class="fil1" points="132.34,86.06 96,86.06 103.71,77.35 123,77.35 123,64.99 132.34,64.99 "/>
  </g>
  <path class="fil2" d="M27.45 154.44l-27.45 0 0 -4.81 19.44 -22.29 -12.76 0 -0.75 0 -5.15 0 0 -4.81 26.06 0 0 4.81 -19.58 22.29 15.04 0 5.15 0 0 4.81zm4.93 -16.02c0,-4.76 1.67,-8.73 5,-11.92 3.33,-3.19 7.49,-4.79 12.48,-4.79 5.02,0 9.18,1.6 12.5,4.79 3.32,3.19 4.98,7.16 4.98,11.92 0,4.76 -1.66,8.74 -4.98,11.96 -3.32,3.22 -7.49,4.83 -12.5,4.83 -4.99,0 -9.15,-1.61 -12.48,-4.83 -3.33,-3.22 -5,-7.2 -5,-11.96zm6.2 0c0,3.38 1.08,6.19 3.24,8.42 2.15,2.24 4.83,3.35 8.03,3.35 3.24,0 5.93,-1.1 8.08,-3.32 2.15,-2.21 3.22,-5.03 3.22,-8.45 0,-3.42 -1.07,-6.25 -3.22,-8.45 -2.15,-2.22 -4.84,-3.32 -8.08,-3.32 -3.2,0 -5.89,1.11 -8.03,3.36 -2.16,2.23 -3.24,5.04 -3.24,8.42zm32.81 0c0,-4.76 1.67,-8.73 5,-11.92 3.33,-3.19 7.49,-4.79 12.48,-4.79 5.02,0 9.18,1.6 12.5,4.79 3.32,3.19 4.98,7.16 4.98,11.92 0,4.76 -1.66,8.74 -4.98,11.96 -3.32,3.22 -7.49,4.83 -12.5,4.83 -4.99,0 -9.15,-1.61 -12.48,-4.83 -3.33,-3.22 -5,-7.2 -5,-11.96zm6.2 0c0,3.38 1.08,6.19 3.24,8.42 2.15,2.24 4.83,3.35 8.03,3.35 3.24,0 5.93,-1.1 8.08,-3.32 2.15,-2.21 3.22,-5.03 3.22,-8.45 0,-3.42 -1.07,-6.25 -3.22,-8.45 -2.15,-2.22 -4.84,-3.32 -8.08,-3.32 -3.2,0 -5.89,1.11 -8.03,3.36 -2.16,2.23 -3.24,5.04 -3.24,8.42zm43.95 -11.35c2.26,-2.19 4.18,-3.63 5.73,-4.33 1.54,-0.68 3.29,-1.03 5.21,-1.03 2.26,0 4.12,0.49 5.55,1.47 1.43,0.99 2.38,2.45 2.86,4.38 1.93,-2.07 3.76,-3.55 5.5,-4.47 1.75,-0.92 3.61,-1.38 5.58,-1.38 3.46,0 5.99,0.91 7.58,2.72 1.59,1.81 2.38,4.71 2.38,8.71l0 16.51 4.95 0 0 4.81 -15.67 0 0 -4.81 4.81 0 0 -14.34c0,-3.29 -0.39,-5.48 -1.2,-6.58 -0.79,-1.1 -2.14,-1.65 -4.04,-1.65 -1.79,0 -3.47,0.5 -5.05,1.5 -1.58,1 -2.9,2.43 -3.99,4.28l0 16.79 4.95 0 0 4.81 -15.81 0 0 -4.81 4.95 0 0 -14.34c0,-3.24 -0.37,-5.42 -1.13,-6.55 -0.74,-1.13 -2.01,-1.68 -3.81,-1.68 -1.6,0 -3.16,0.44 -4.67,1.32 -1.51,0.88 -3.07,2.29 -4.68,4.19l0 17.05 4.81 0 0 4.81 -15.67 0 0 -4.81 4.95 0 0 -22.29 -4.95 0 0 -4.81 10.87 0 0 4.53zm50.85 -12.47l0 -6.41 8.57 0 0 6.41 -8.57 0zm8.57 35.03l5.57 0 0 4.81 -17 0 0 -4.81 5.5 0 0 -22.29 -5.5 0 0 -4.81 11.42 0 0 27.09zm35.15 -4.46l3.22 3.13c-1.74,2.26 -3.84,3.99 -6.29,5.18 -2.45,1.2 -5.15,1.79 -8.13,1.79 -4.83,0 -8.67,-1.51 -11.53,-4.54 -2.86,-3.02 -4.28,-7.06 -4.28,-12.11 0,-5.07 1.38,-9.17 4.16,-12.27 2.77,-3.1 6.43,-4.65 10.96,-4.65 2.07,0 3.89,0.31 5.47,0.95 1.59,0.63 3.02,1.61 4.28,2.94l0 -3.05 4.67 0 0 11 -4.26 0c-0.9,-2.29 -2.16,-4.01 -3.77,-5.17 -1.61,-1.15 -3.54,-1.73 -5.78,-1.73 -2.88,0 -5.2,1.09 -6.95,3.29 -1.75,2.18 -2.63,5.08 -2.63,8.69 0,3.64 0.94,6.5 2.82,8.56 1.88,2.05 4.51,3.08 7.89,3.08 1.95,0 3.77,-0.42 5.46,-1.26 1.7,-0.84 3.26,-2.11 4.71,-3.82z"/>
 </g>
</svg>
