<svg id="Layer_1" height="512" viewBox="0 0 64 64" width="512" xmlns="http://www.w3.org/2000/svg" data-name="Layer 1"><path d="m44.19 39.9-1.55-2.32a11.83 11.83 0 0 0 .86-2.08l2.74-.5a1 1 0 0 0 .8-1v-4a1 1 0 0 0 -.8-1l-2.74-.55a12.15 12.15 0 0 0 -.86-2.08l1.55-2.37a1 1 0 0 0 -.13-1.26l-2.83-2.74a1 1 0 0 0 -1.23-.17l-2.32 1.54a11.83 11.83 0 0 0 -2.08-.86l-.6-2.73a1 1 0 0 0 -1-.78h-4a1 1 0 0 0 -1 .81l-.55 2.73a12.15 12.15 0 0 0 -2.08.86l-2.32-1.54a1 1 0 0 0 -1.26.12l-2.79 2.8a1 1 0 0 0 -.1 1.22l1.55 2.32a11.44 11.44 0 0 0 -.87 2.08l-2.73.6a1 1 0 0 0 -.85 1v4a1 1 0 0 0 .81 1l2.73.55a11.15 11.15 0 0 0 .87 2.08l-1.51 2.27a1 1 0 0 0 .1 1.26l2.85 2.84a1 1 0 0 0 1.26.13l2.32-1.55a12.15 12.15 0 0 0 2.08.86l.55 2.74a1 1 0 0 0 1 .8h4a1 1 0 0 0 1-.8l.55-2.74a11.83 11.83 0 0 0 2.08-.86l2.31 1.54a1 1 0 0 0 1.23-.12l2.83-2.83a1 1 0 0 0 .13-1.27zm-3.56-1.72 1.44 2.15-1.67 1.67-2.15-1.44a1 1 0 0 0 -1.07 0 9.89 9.89 0 0 1 -2.71 1.12 1 1 0 0 0 -.74.78l-.51 2.54h-2.36l-.51-2.53a1 1 0 0 0 -.73-.78 9.76 9.76 0 0 1 -2.71-1.12 1 1 0 0 0 -1.07 0l-2.16 1.43-1.68-1.67 1.43-2.15a1 1 0 0 0 0-1.07 10.21 10.21 0 0 1 -1.12-2.71 1 1 0 0 0 -.77-.74l-2.54-.51v-2.36l2.54-.51a1 1 0 0 0 .77-.73 10.07 10.07 0 0 1 1.12-2.71 1 1 0 0 0 0-1.07l-1.43-2.16 1.66-1.67 2.16 1.44a1 1 0 0 0 1.07 0 10.07 10.07 0 0 1 2.71-1.12 1 1 0 0 0 .73-.77l.53-2.49h2.36l.51 2.54a1 1 0 0 0 .74.77 10.21 10.21 0 0 1 2.71 1.12 1 1 0 0 0 1.07 0l2.15-1.44 1.67 1.67-1.44 2.16a1 1 0 0 0 0 1.07 9.76 9.76 0 0 1 1.12 2.71 1 1 0 0 0 .78.73l2.53.51v2.36l-2.53.51a1 1 0 0 0 -.78.74 9.89 9.89 0 0 1 -1.12 2.71 1 1 0 0 0 0 1.02z"/><path d="m32 24a8 8 0 1 0 8 8 8 8 0 0 0 -8-8zm0 14a6 6 0 1 1 6-6 6 6 0 0 1 -6 6z"/><path d="m31 12.87v1.13a1 1 0 0 0 2 0v-1.1a5 5 0 1 0 -2 0zm1-7.87a3 3 0 1 1 -3 3 3 3 0 0 1 3-3z"/><path d="m17.8 19.15.77.78a1 1 0 0 0 1.42 0 1 1 0 0 0 0-1.41l-.78-.78a5 5 0 1 0 -1.41 1.41zm-4.88-6.29a3 3 0 1 1 0 4.24 3 3 0 0 1 0-4.24z"/><path d="m12.87 33h1.13a1 1 0 0 0 0-2h-1.1a5 5 0 1 0 0 2zm-4.87 2a3 3 0 1 1 3-3 3 3 0 0 1 -3 3z"/><path d="m19.93 44a1 1 0 0 0 -1.41 0l-.78.78a5 5 0 1 0 1.41 1.41l.78-.77a1 1 0 0 0 0-1.42zm-2.83 7.08a3 3 0 1 1 0-4.24 3 3 0 0 1 0 4.24z"/><path d="m33 51.13v-1.13a1 1 0 0 0 -2 0v1.1a5 5 0 1 0 2 0zm-1 7.87a3 3 0 1 1 3-3 3 3 0 0 1 -3 3z"/><path d="m46.2 44.85-.77-.78a1 1 0 0 0 -1.42 0 1 1 0 0 0 0 1.41l.78.78a5 5 0 1 0 1.41-1.41zm4.88 6.29a3 3 0 1 1 0-4.24 3 3 0 0 1 0 4.24z"/><path d="m56 27a5 5 0 0 0 -4.9 4h-1.1a1 1 0 0 0 0 2h1.1a5 5 0 1 0 4.9-6zm0 8a3 3 0 1 1 3-3 3 3 0 0 1 -3 3z"/><path d="m44.07 20a1 1 0 0 0 1.41 0l.78-.78a5 5 0 1 0 -1.41-1.41l-.78.77a1 1 0 0 0 0 1.42zm2.83-7.07a3 3 0 1 1 0 4.24 3 3 0 0 1 0-4.25z"/></svg>